<?xml version="1.0" encoding="UTF-8"?><svg id="Layer_1" xmlns="http://www.w3.org/2000/svg" viewBox="0 0 501.20569 550.52037"><defs><style>.cls-1,.cls-2,.cls-3,.cls-4,.cls-5,.cls-6,.cls-7{stroke-miterlimit:10;}.cls-1,.cls-2,.cls-3,.cls-4,.cls-5,.cls-7,.cls-8,.cls-9{stroke:#f9a049;}.cls-1,.cls-2,.cls-5,.cls-6,.cls-7{stroke-width:4px;}.cls-1,.cls-9{fill:#fff;}.cls-2,.cls-3,.cls-8{fill:#f9a049;}.cls-4{stroke-width:2px;}.cls-4,.cls-5,.cls-6{fill:none;}.cls-6{stroke:#ccc;}.cls-8,.cls-9{stroke-linejoin:round;stroke-width:7px;}</style></defs><polygon class="cls-3" points="103.81886 137.81681 106.82612 147.54851 116.55782 147.54851 108.68471 153.56302 111.69197 163.29472 103.81886 157.2802 95.94575 163.29472 98.95301 153.56302 91.0799 147.54851 100.8116 147.54851 103.81886 137.81681"/><polygon class="cls-3" points="151.3538 119.90269 154.36106 129.63439 164.09276 129.63439 156.21965 135.64891 159.22691 145.38061 151.3538 139.36609 143.48069 145.38061 146.48795 135.64891 138.61485 129.63439 148.34654 129.63439 151.3538 119.90269"/><polygon class="cls-3" points="158.71998 158.11956 161.72724 167.85126 171.45893 167.85126 163.58582 173.86578 166.59308 183.59748 158.71998 177.58296 150.84687 183.59748 153.85413 173.86578 145.98102 167.85126 155.71272 167.85126 158.71998 158.11956"/><polygon class="cls-3" points="114.11049 211.91324 117.11775 221.64494 126.84945 221.64494 118.97634 227.65946 121.9836 237.39116 114.11049 231.37664 106.23738 237.39116 109.24464 227.65946 101.37153 221.64494 111.10323 221.64494 114.11049 211.91324"/><polygon class="cls-3" points="161.95292 211.91324 164.96018 221.64494 174.69187 221.64494 166.81876 227.65946 169.82602 237.39116 161.95292 231.37664 154.07981 237.39116 157.08707 227.65946 149.21396 221.64494 158.94566 221.64494 161.95292 211.91324"/><polygon class="cls-3" points="131.21296 253.41324 134.22021 263.14494 143.95191 263.14494 136.0788 269.15946 139.08606 278.89116 131.21296 272.87664 123.33985 278.89116 126.34711 269.15946 118.474 263.14494 128.2057 263.14494 131.21296 253.41324"/><polygon class="cls-3" points="198.88875 132.64165 201.89601 142.37335 211.62771 142.37335 203.7546 148.38787 206.76186 158.11956 198.88875 152.10504 191.01564 158.11956 194.0229 148.38787 186.14979 142.37335 195.88149 142.37335 198.88875 132.64165"/><polygon class="cls-3" points="243.55161 119.90269 246.55887 129.63439 256.29057 129.63439 248.41746 135.64891 251.42472 145.38061 243.55161 139.36609 235.6785 145.38061 238.68576 135.64891 230.81265 129.63439 240.54435 129.63439 243.55161 119.90269"/><polygon class="cls-3" points="211.62771 177.42478 214.63497 187.15647 224.36666 187.15647 216.49356 193.17099 219.50082 202.90269 211.62771 196.88817 203.7546 202.90269 206.76186 193.17099 198.88875 187.15647 208.62045 187.15647 211.62771 177.42478"/><polygon class="cls-3" points="226.74965 263.39233 229.75691 273.12403 239.48861 273.12403 231.6155 279.13855 234.62276 288.87024 226.74965 282.85572 218.87654 288.87024 221.8838 279.13855 214.01069 273.12403 223.74239 273.12403 226.74965 263.39233"/><polygon class="cls-3" points="211.62771 226.40269 214.63497 236.13439 224.36666 236.13439 216.49356 242.14891 219.50082 251.88061 211.62771 245.86609 203.7546 251.88061 206.76186 242.14891 198.88875 236.13439 208.62045 236.13439 211.62771 226.40269"/><polygon class="cls-3" points="248.12771 202.90269 251.13497 212.63439 260.86666 212.63439 252.99356 218.64891 256.00082 228.38061 248.12771 222.36609 240.2546 228.38061 243.26186 218.64891 235.38875 212.63439 245.12045 212.63439 248.12771 202.90269"/><rect class="cls-4" x="90.69187" y="121.74502" width="168" height="168" rx="20" ry="20"/><path class="cls-2" d="m181.48383,122.55137c-.91418-20.31168,8.73642-39.8414,21.59821-55.58861,14.06868-17.22487,33.44359-31.56021,55.58723-33.62982,2.51704-.23525,5.151-.29234,7.46427.72726,3.47608,1.53212,5.58351,5.32888,5.89397,9.11493s-.92532,7.54612-2.63093,10.94044c-4.53648,9.02802-12.27731,15.98545-20.11839,22.35744-13.07173,10.62263-26.93691,20.26865-41.44187,28.83115-9.30675,5.49392-19.12742,10.74986-26.35248,17.24721Z"/><path class="cls-2" d="m180.9613,123.39061c1.55064-9.83273-2.99566-19.5013-7.56272-28.34601-7.5651-14.65079-15.67247-29.27913-27.08996-41.17522-11.41749-11.8961-26.63144-20.93624-43.09758-21.79794-4.94564-.25881-10.18095.30887-14.23549,3.15265-4.63915,3.25382-6.95462,8.94025-8.01855,14.50595-1.16336,6.08589-1.10444,12.4538.61129,18.4076,4.3908,15.23663,18.84201,25.56344,33.75053,30.96436,14.90852,5.40092,30.92175,7.07642,46.02531,11.90513,8.37143,2.6764,17.26641,7.18125,19.61718,12.38349Z"/><path class="cls-2" d="m181.23981,119.78563c1.58481,11.191-2.71529,22.46329-8.69322,32.05571-5.97793,9.59242-13.6419,18.03045-19.86138,27.46804-13.32751,20.22347-19.63702,44.97863-17.6156,69.11419-11.01206-10.54479-15.78932-27.16986-12.05504-41.95205-2.65586,7.51032-12.30326,9.38652-20.26879,9.48104-3.02792.03593-6.1254-.02285-8.97009-1.0608-9.65714-3.52361-12.03995-15.84269-12.92077-26.08477,3.19289,6.2702,12.54923,4.5916,18.92417,1.61332,23.71107-11.07749,44.91917-27.47351,61.61038-47.63112,7.13013-8.6109,13.81539-18.20928,19.85035-23.00355Z"/><path class="cls-2" d="m179.80513,121.93598c4.23738.21349,7.65855,3.7675,9.30771,7.67662s1.96473,8.22754,2.81741,12.38372c5.03021,24.51846,31.8259,42.2992,56.37223,37.40676,12.57213-2.50581,23.56683-9.88832,35.55575-14.42741,17.07105-6.46323,36.33192-6.97203,53.72039-1.4191-2.44279-6.85945-9.231-11.43364-16.29821-13.18685s-14.47848-1.14374-21.73341-.52313c4.14235-6.21063,12.67538-7.34748,18.98023-11.34495,9.48244-6.01217,13.15192-19.65926,7.96332-29.61624-18.00124,6.90094-26.25732,28.6068-43.37755,37.4705-19.05469,9.86523-42.81628.58194-59.08881-13.40407-5.52025-4.74458-10.69216-10.08702-17.20277-13.34219s-14.93103-3.98708-27.01628,2.32633Z"/><line class="cls-7" x1="177.2485" y1="122.56782" x2="177.2485" y2="288.92222"/><ellipse class="cls-3" cx="348.62889" cy="508.48033" rx="12.25" ry="11.08728"/><ellipse class="cls-3" cx="308.81784" cy="527.73698" rx="12.25" ry="11.08728"/><ellipse class="cls-3" cx="275.56217" cy="493.52376" rx="12.25" ry="11.08728"/><ellipse class="cls-3" cx="257.56217" cy="531.14476" rx="12.25" ry="11.08728"/><ellipse class="cls-3" cx="225.86015" cy="508.48033" rx="12.25" ry="11.08728"/><ellipse class="cls-3" cx="234.91717" cy="465.88085" rx="12.25" ry="11.08728"/><rect class="cls-5" x="235.93972" y="422.28615" width="92.8918" height="156.99996" rx="20" ry="20" transform="translate(783.17175 218.40051) rotate(90)"/><circle class="cls-5" cx="243.04634" cy="385.48181" r="67.5"/><path class="cls-5" d="m246.72616,317.16531c-7.60343,15.89258-10.61054,33.56008-12.70795,51.05256-1.74948,14.59081-2.92409,29.34804-1.47215,43.97146,1.45194,14.62341,5.64988,29.19752,13.90411,41.35565"/><path class="cls-5" d="m176.37809,376.29204c17.43133,10.45481,38.45587,12.55407,58.70816,14.28576,25.89448,2.21413,53.45009,3.90986,76.3742-8.33399"/><line class="cls-1" x1="282.38562" y1="455.45902" x2="282.38562" y2="546.11324"/><path class="cls-2" d="m233.19184,388.29825c-4.41439-7.43781-7.41163-15.60543-7.12711-23.87842.28452-8.273,4.12538-16.66196,11.63924-22.16854,2.07616-1.52153,4.65781-2.86937,7.42844-2.6716,2.73819.19545,5.05586,1.9244,6.20723,3.9766s1.31177,4.38429,1.20394,6.64261c-.46562,9.75219-5.50721,18.91001-10.46124,27.7789-2.39837,4.29366-4.79675,8.58732-8.8905,10.32046Z"/><line class="cls-1" x1="360.8856" y1="500.78613" x2="203.88564" y2="500.78613"/><path class="cls-2" d="m234.21409,390.36762c-3.95395-5.20038-11.16051-7.12827-17.91334-8.77627-4.92656-1.2023-9.85312-2.40461-14.77968-3.60692-3.11692-.76067-6.34503-1.52667-9.66482-1.01419-3.3198.51249-6.78042,2.65698-7.68966,5.72489-.75378,2.54338.36182,5.0327,1.59861,7.19893,2.11993,3.71305,4.81125,7.30749,8.85716,9.16682,4.10679,1.88731,9.09107,1.76472,13.87431,1.60535,9.27573-.30906,19.43516-.92908,26.93616-6.80705,1.10837-.86855,2.1732-1.89754,2.60975-3.15422s.03691-2.76638-3.82848-.33733Z"/><path class="cls-2" d="m234.27602,392.7597c-1.64555,11.26871-5.79398,22.16496-12.05929,31.67483,8.0761.99793,16.06724,2.6825,23.85894,5.02958,1.48415.44707,3.1944.89124,4.49556.04891-2.20516-8.00238-5.0909-15.81711-8.61585-23.33213-2.32934-4.96606-4.99298-10.01267-5.14605-15.49575-.008-.28665-.36679-.46201-.39369-.74751s.5061.05545-2.13962,2.82208Z"/><path class="cls-2" d="m284.3348,452.11655c.45175-10.77686,1.61079-21.68015,5.52135-31.73263s10.85482-19.26808,20.5136-24.0694c3.9794-1.97814,9.07163-3.06104,12.65035-.4264,4.63962,3.41568,3.7777,10.58698,1.62543,15.93119-7.49717,18.61589-23.9549,31.86306-40.31073,40.29724Z"/><path class="cls-2" d="m284.18421,456.01405c.39049-14.73634-5.81757-28.80019-12.66469-41.85504-1.9348-3.68893-3.96214-7.38937-6.80279-10.43607-3.14325-3.37125-8.12517-5.91517-12.29372-3.9483-2.26392,1.0682-3.81498,3.30036-4.58454,5.68241-1.33208,4.12324-.55558,8.69575,1.22181,12.64751s4.4876,7.39854,7.1706,10.80105c3.28044,4.16016,6.56088,8.32031,9.84132,12.48047,2.25169,2.85553,4.5354,5.743,7.42258,7.95397,4.60678,3.52782,10.38648,5.07223,10.68943,6.674Z"/><ellipse class="cls-3" cx="328.23358" cy="474.7548" rx="12.25" ry="11.08728"/><path class="cls-2" d="m283.58136,458.26717c-11.26577,19.39304-15.80868,41.92387-18.62742,64.17386-3.75542-9.201-5.73564-19.12282-5.79995-29.0605-5.68052,8.6023-15.48445,14.34311-25.76616,15.08768-3.23415.23421-7.5189-.9833-7.52768-4.2259,19.47697-16.49425,38.68557-33.30541,57.61562-50.42458.43739-.39555-.72514-.32122.10559,4.44944Z"/><path class="cls-2" d="m237.08872,388.92295c7.31215,1.14461,14.69715-1.4227,21.34537-4.67521,6.64822-3.25251,13.0058-7.25624,20.11657-9.30919-2.76058,8.38115-3.10517,17.54296-.98195,26.1078.14375.57988.1648,1.40378-.41475,1.54884-.17604.04406-.36083.0014-.53719-.04134-6.99492-1.6955-13.93179-3.63048-20.79436-5.80043-1.99388-.63046-3.99219-1.28519-5.84642-2.25207-1.88817-.98458-3.60164-2.27996-5.49638-3.25182-2.2702-1.16444-4.78576-1.84773-7.39088-2.32658Z"/><path class="cls-2" d="m286.81198,456.5432c6.40732.19203,11.71912,4.91046,15.90861,9.76214,11.56941,13.39808,19.34965,30.03309,22.21653,47.50136-8.44344-3.12427-15.62907-9.51781-19.71385-17.54073.01943,6.92652-1.46158,13.85345-4.31167,20.16645-.72302,1.60151-2.03141,3.42917-3.75656,3.09534-1.75198-8.60805-3.5066-17.22698-5.93943-25.66791-3.6877-12.79478-8.98714-25.94892-4.40362-37.31665Z"/><path class="cls-6" d="m6.97465,357.82188c6.56217-5.62638,16.54662-5.21673,24.94403-2.84833,8.39741,2.3684,16.43634,6.37278,25.15892,6.9454,12.69181.83321,24.67897-5.69439,37.33883-6.90385,19.58542-1.87109,38.55693,9.06885,58.19747,7.86479,2.46924-.15138,4.96859-.50771,7.20819-1.53181,3.83187-1.75219,7.94845-5.44879,11.57337-3.31941"/><path class="cls-6" d="m6.97465,328.78404c5.74581-5.26443,14.47217-5.97634,22.18037-4.58227s14.9897,4.56617,22.67469,6.0802c10.46049,2.06083,21.37383.96832,31.65178-1.84983,10.22207-2.80282,20.43189-7.34134,30.9678-6.11788,9.39273,1.09071,17.65032,6.64819,26.8437,8.8405,9.98914,2.38207,20.93905.52532,29.55257-5.01116"/><path class="cls-6" d="m8.10744,520.96978c3.53255-3.17809,7.39325-6.18365,11.93303-7.58703,14.78663-4.57099,29.58962,9.05411,45.03014,7.99168,7.9623-.54787,15.05614-4.93674,22.45476-7.92986,13.49801-5.46065,28.81276-6.31188,42.83279-2.38075,6.49948,1.82242,12.77879,4.64752,19.49179,5.3547,6.71299.70718,14.30286-1.26452,17.89196-6.98141"/><path class="cls-6" d="m7.87291,482.53591c8.00686-10.74973,23.50422-12.46063,36.77718-10.59116,13.27296,1.86947,26.50934,6.36364,39.77815,4.46495,12.27584-1.7566,23.2548-8.84596,35.47871-10.93357,7.99327-1.3651,16.35551-.50014,23.90014,2.47213,8.33165,3.28233,17.28867,9.1485,25.43379,5.42734"/><path class="cls-6" d="m6.97465,449.98186c.86563-7.47369,8.07219-13.05543,15.58662-14.4622,7.51443-1.40677,15.23823.49146,22.53186,2.75877s14.61167,4.94507,22.25857,5.13723c18.51221.46522,35.38641-13.61528,53.80003-11.68214,8.27209.86844,15.82872,4.92206,23.90988,6.86461,8.08116,1.94254,17.97728,1.08371,22.75867-5.61069"/><path class="cls-6" d="m5.24088,401.73004c4.46674-7.00554,15.03539-7.53342,23.18714-5.04547s15.7152,7.14717,24.24346,7.77763c13.57749,1.00373,25.63893-8.33094,39.09767-10.32308,14.64054-2.16707,29.01381,4.5041,43.73616,6.079,11.05279,1.18236,22.43195-.58687,32.53171-5.05803"/><path class="cls-6" d="m6.97465,357.82188c6.56217-5.62638,16.54662-5.21673,24.94403-2.84833,8.39741,2.3684,16.43634,6.37278,25.15892,6.9454,12.69181.83321,24.67897-5.69439,37.33883-6.90385,19.58542-1.87109,38.55693,9.06885,58.19747,7.86479,2.46924-.15138,4.96859-.50771,7.20819-1.53181,3.83187-1.75219,7.94845-5.44879,11.57337-3.31941"/><path class="cls-6" d="m6.97465,328.78404c5.74581-5.26443,14.47217-5.97634,22.18037-4.58227s14.9897,4.56617,22.67469,6.0802c10.46049,2.06083,21.37383.96832,31.65178-1.84983,10.22207-2.80282,20.43189-7.34134,30.9678-6.11788,9.39273,1.09071,17.65032,6.64819,26.8437,8.8405,9.98914,2.38207,20.93905.52532,29.55257-5.01116"/><path class="cls-6" d="m8.10744,520.96978c3.53255-3.17809,7.39325-6.18365,11.93303-7.58703,14.78663-4.57099,29.58962,9.05411,45.03014,7.99168,7.9623-.54787,15.05614-4.93674,22.45476-7.92986,13.49801-5.46065,28.81276-6.31188,42.83279-2.38075,6.49948,1.82242,12.77879,4.64752,19.49179,5.3547,6.71299.70718,14.30286-1.26452,17.89196-6.98141"/><path class="cls-6" d="m7.87291,482.53591c8.00686-10.74973,23.50422-12.46063,36.77718-10.59116,13.27296,1.86947,26.50934,6.36364,39.77815,4.46495,12.27584-1.7566,23.2548-8.84596,35.47871-10.93357,7.99327-1.3651,16.35551-.50014,23.90014,2.47213,8.33165,3.28233,17.28867,9.1485,25.43379,5.42734"/><path class="cls-6" d="m6.97465,449.98186c.86563-7.47369,8.07219-13.05543,15.58662-14.4622,7.51443-1.40677,15.23823.49146,22.53186,2.75877s14.61167,4.94507,22.25857,5.13723c18.51221.46522,35.38641-13.61528,53.80003-11.68214,8.27209.86844,15.82872,4.92206,23.90988,6.86461,8.08116,1.94254,17.97728,1.08371,22.75867-5.61069"/><path class="cls-6" d="m5.24088,401.73004c4.46674-7.00554,15.03539-7.53342,23.18714-5.04547s15.7152,7.14717,24.24346,7.77763c13.57749,1.00373,25.63893-8.33094,39.09767-10.32308,14.64054-2.16707,29.01381,4.5041,43.73616,6.079,11.05279,1.18236,22.43195-.58687,32.53171-5.05803"/><path class="cls-6" d="m6.97465,357.82188c6.56217-5.62638,16.54662-5.21673,24.94403-2.84833,8.39741,2.3684,16.43634,6.37278,25.15892,6.9454,12.69181.83321,24.67897-5.69439,37.33883-6.90385,19.58542-1.87109,38.55693,9.06885,58.19747,7.86479,2.46924-.15138,4.96859-.50771,7.20819-1.53181,3.83187-1.75219,7.94845-5.44879,11.57337-3.31941"/><path class="cls-6" d="m6.97465,328.78404c5.74581-5.26443,14.47217-5.97634,22.18037-4.58227s14.9897,4.56617,22.67469,6.0802c10.46049,2.06083,21.37383.96832,31.65178-1.84983,10.22207-2.80282,20.43189-7.34134,30.9678-6.11788,9.39273,1.09071,17.65032,6.64819,26.8437,8.8405,9.98914,2.38207,20.93905.52532,29.55257-5.01116"/><path class="cls-6" d="m8.10744,520.96978c3.53255-3.17809,7.39325-6.18365,11.93303-7.58703,14.78663-4.57099,29.58962,9.05411,45.03014,7.99168,7.9623-.54787,15.05614-4.93674,22.45476-7.92986,13.49801-5.46065,28.81276-6.31188,42.83279-2.38075,6.49948,1.82242,12.77879,4.64752,19.49179,5.3547,6.71299.70718,14.30286-1.26452,17.89196-6.98141"/><path class="cls-6" d="m7.87291,482.53591c8.00686-10.74973,23.50422-12.46063,36.77718-10.59116,13.27296,1.86947,26.50934,6.36364,39.77815,4.46495,12.27584-1.7566,23.2548-8.84596,35.47871-10.93357,7.99327-1.3651,16.35551-.50014,23.90014,2.47213,8.33165,3.28233,17.28867,9.1485,25.43379,5.42734"/><path class="cls-6" d="m6.97465,449.98186c.86563-7.47369,8.07219-13.05543,15.58662-14.4622,7.51443-1.40677,15.23823.49146,22.53186,2.75877s14.61167,4.94507,22.25857,5.13723c18.51221.46522,35.38641-13.61528,53.80003-11.68214,8.27209.86844,15.82872,4.92206,23.90988,6.86461,8.08116,1.94254,17.97728,1.08371,22.75867-5.61069"/><path class="cls-6" d="m5.24088,401.73004c4.46674-7.00554,15.03539-7.53342,23.18714-5.04547s15.7152,7.14717,24.24346,7.77763c13.57749,1.00373,25.63893-8.33094,39.09767-10.32308,14.64054-2.16707,29.01381,4.5041,43.73616,6.079,11.05279,1.18236,22.43195-.58687,32.53171-5.05803"/><path class="cls-5" d="m6.97465,357.82188c6.56217-5.62638,16.54662-5.21673,24.94403-2.84833,8.39741,2.3684,16.43634,6.37278,25.15892,6.9454,12.69181.83321,24.67897-5.69439,37.33883-6.90385,19.58542-1.87109,38.55693,9.06885,58.19747,7.86479,2.46924-.15138,4.96859-.50771,7.20819-1.53181,3.83187-1.75219,7.94845-5.44879,11.57337-3.31941"/><path class="cls-5" d="m6.97465,328.78404c5.74581-5.26443,14.47217-5.97634,22.18037-4.58227s14.9897,4.56617,22.67469,6.0802c10.46049,2.06083,21.37383.96832,31.65178-1.84983,10.22207-2.80282,20.43189-7.34134,30.9678-6.11788,9.39273,1.09071,17.65032,6.64819,26.8437,8.8405,9.98914,2.38207,20.93905.52532,29.55257-5.01116"/><path class="cls-5" d="m8.10744,520.96978c3.53255-3.17809,7.39325-6.18365,11.93303-7.58703,14.78663-4.57099,29.58962,9.05411,45.03014,7.99168,7.9623-.54787,15.05614-4.93674,22.45476-7.92986,13.49801-5.46065,28.81276-6.31188,42.83279-2.38075,6.49948,1.82242,12.77879,4.64752,19.49179,5.3547,6.71299.70718,14.30286-1.26452,17.89196-6.98141"/><path class="cls-5" d="m7.87291,482.53591c8.00686-10.74973,23.50422-12.46063,36.77718-10.59116,13.27296,1.86947,26.50934,6.36364,39.77815,4.46495,12.27584-1.7566,23.2548-8.84596,35.47871-10.93357,7.99327-1.3651,16.35551-.50014,23.90014,2.47213,8.33165,3.28233,17.28867,9.1485,25.43379,5.42734"/><line class="cls-9" x1="7.87291" y1="482.53591" x2="56.09012" y2="547.94155"/><path class="cls-5" d="m6.97465,449.98186c.86563-7.47369,8.07219-13.05543,15.58662-14.4622,7.51443-1.40677,15.23823.49146,22.53186,2.75877s14.61167,4.94507,22.25857,5.13723c18.51221.46522,35.38641-13.61528,53.80003-11.68214,8.27209.86844,15.82872,4.92206,23.90988,6.86461,8.08116,1.94254,17.97728,1.08371,22.75867-5.61069"/><path class="cls-5" d="m5.24088,401.73004c4.46674-7.00554,15.03539-7.53342,23.18714-5.04547s15.7152,7.14717,24.24346,7.77763c13.57749,1.00373,25.63893-8.33094,39.09767-10.32308,14.64054-2.16707,29.01381,4.5041,43.73616,6.079,11.05279,1.18236,22.43195-.58687,32.53171-5.05803"/><line class="cls-9" x1="100.60447" y1="294.40575" x2="169.83205" y2="360.69835"/><path class="cls-8" d="m141.29705,333.83044c7.88606-19.02641,19.35224-39.97017,39.5211-44.14287,5.45008-1.12756,11.96018-.47135,15.28652,3.99073,5.25571,7.05021-1.18488,16.86559-8.05399,22.35586-14.04326,11.22435-31.39522,18.25614-49.29063,19.97474,3.68783-13.81562,3.4208-28.6634-.76142-42.33748-1.45898-4.77025-3.82991-9.86399-8.46088-11.71816-7.82432-3.13273-15.8231,5.33935-17.36219,13.6258-3.3104,17.8232,13.26139,36.45821,31.34925,35.25231-4.86461,21.99828-23.55856,40.29157-45.65705,44.67851-4.50789.8949-9.47473,1.18031-13.41792-1.18046-7.24165-4.33554-7.26692-14.63389-6.40314-23.02986,9.63734,9.18347,25.21521,9.47595,37.46419,4.26279s21.94426-14.89917,31.31146-24.35804c-1.56894,9.8674-3.14251,19.86709-2.14589,29.80861s4.87321,19.98572,12.52727,26.40774,19.5022,8.29917,27.80504,2.7413c5.95707-3.98762,9.31837-11.19535,9.60705-18.35806-3.64783,6.20407-10.75576,10.21227-17.95223,10.12336-8.5931-.10616-16.3754-5.67864-21.34528-12.68955s-7.60577-15.36585-10.16782-23.56882c-1.43679-4.60018-2.87357-9.20036-3.85344-11.83848Z"/><rect class="cls-5" x="7.18505" y="293.99415" width="164" height="254"/><path class="cls-4" d="m375.67846,492.88874c8.85999,3.70309,19.94305,1.17455,26.32028-6.00482.52054-.58602,1.03912-1.27815.99728-2.06085-.07255-1.35715-1.9985-2.02394-3.10795-1.23892s-1.32204,2.43058-.80808,3.68874,1.5864,2.19655,2.68418,2.99781c8.93518,6.52175,21.10788,6.67266,31.89204,4.20842,1.74372-.39845,3.53557-.88845,4.91052-2.0325s2.21619-3.118,1.53263-4.7709-3.22764-2.34653-4.35361-.95674c-.31795,2.31147.89542,4.64066,2.66931,6.15634s4.03842,2.33179,6.30216,2.89702c9.44585,2.35856,19.82681.69691,28.06452-4.49222,1.8992-1.19635,3.86933-2.91891,3.8337-5.16321-.00483-.3045-.05412-.62294-.23684-.86658-.74407-.99214-2.28869.38431-2.30276,1.62439-.03692,3.25412,3.49923,5.30582,6.65307,6.10829,3.68086.93657,7.54123,1.16224,11.30615.66092"/><path class="cls-4" d="m376.34035,417.40488c8.85999,3.70309,19.94305,1.17455,26.32028-6.00482.52054-.58602,1.03912-1.27815.99728-2.06085-.07255-1.35715-1.9985-2.02394-3.10795-1.23892s-1.32204,2.43058-.80808,3.68874,1.5864,2.19655,2.68418,2.99781c8.93518,6.52175,21.10788,6.67266,31.89204,4.20842,1.74372-.39845,3.53557-.88845,4.91052-2.0325s2.21619-3.118,1.53263-4.7709-3.22764-2.34653-4.35361-.95674c-.31795,2.31147.89542,4.64066,2.66931,6.15634s4.03842,2.33179,6.30216,2.89702c9.44585,2.35856,19.82681.69691,28.06452-4.49222,1.8992-1.19635,3.86933-2.91891,3.8337-5.16321-.00483-.3045-.05412-.62294-.23684-.86658-.74407-.99214-2.28869.38431-2.30276,1.62439-.03692,3.25412,3.49923,5.30582,6.65307,6.10829,3.68086.93657,7.54123,1.16224,11.30615.66092"/><path class="cls-4" d="m376.25914,511.39795c3.415,3.06145,8.2105,4.24416,12.79234,4.04055s9.01181-1.66824,13.27649-3.35562c1.37712-.54487,2.79923-1.1533,3.75615-2.28364s1.27942-2.94001.32481-4.0723c-1.1182-1.32633-3.49224-.93915-4.47116.49306s-.72693,3.44658.21021,4.90647,2.43497,2.46174,3.95641,3.29525c10.96069,6.00476,24.4037,5.07398,36.57987,2.25707,1.35461-.31338,2.75613-.67338,3.82285-1.56516s1.68773-2.47466,1.0581-3.71431c-.93014-1.83132-4.05834-1.42742-4.94944.42321s.12517,4.18497,1.80114,5.37242,3.82136,1.46986,5.87424,1.53774c11.12667.36794,21.6968-4.45043,31.72948-9.27573,1.49059-.71691,3.23721-1.90204,2.94989-3.53093-1.12801-.73543-2.73069.42244-2.87382,1.76138s.68371,2.58535,1.6,3.57209c2.0665,2.22537,4.80293,3.82045,7.75769,4.52197"/><path class="cls-4" d="m376.92103,435.91408c3.415,3.06145,8.2105,4.24416,12.79234,4.04055s9.01181-1.66824,13.27649-3.35562c1.37712-.54487,2.79923-1.1533,3.75615-2.28364s1.27942-2.94001.32481-4.0723c-1.1182-1.32633-3.49224-.93915-4.47116.49306s-.72693,3.44658.21021,4.90647,2.43497,2.46174,3.95641,3.29525c10.96069,6.00476,24.4037,5.07398,36.57987,2.25707,1.35461-.31338,2.75613-.67338,3.82285-1.56516s1.68773-2.47466,1.0581-3.71431c-.93014-1.83132-4.05834-1.42742-4.94944.42321s.12517,4.18497,1.80114,5.37242,3.82136,1.46986,5.87424,1.53774c11.12667.36794,21.6968-4.45043,31.72948-9.27573,1.49059-.71691,3.23721-1.90204,2.94989-3.53093-1.12801-.73543-2.73069.42244-2.87382,1.76138s.68371,2.58535,1.6,3.57209c2.0665,2.22537,4.80293,3.82045,7.75769,4.52197"/><path class="cls-4" d="m376.07558,538.32989c9.37433,1.13423,19.03662,1.93983,28.15599-.42361,4.79936-1.24383,9.70025-3.68773,11.72244-8.02614-1.15689-1.23296-3.53198-.73318-4.40318.69809-.8712,1.43127-.44938,3.33167.60494,4.64583s2.62345,2.15144,4.19117,2.85819c4.38945,1.97882,9.14076,3.22311,13.97324,3.65937,2.82193.25475,5.90206.16589,8.15621-1.47512s2.97322-5.33545.73116-6.99151c-.23309-.17217-.49571-.31931-.78602-.36767-1.17646-.19599-1.94016,1.40035-1.39692,2.41591s1.76736,1.49007,2.89991,1.8518c5.84051,1.86542,11.96321,2.92305,18.11796,3.12969,4.6706.15681,9.82318-.36843,13.07776-3.57118.92573-.91099,1.68264-2.14427,1.4472-3.39358s-1.88827-2.2155-2.96556-1.47182c-1.57024,1.08397.01559,3.39416,1.60486,4.45255,3.0092,2.00401,6.28471,3.79073,9.89715,4.40206s7.63199-.11924,10.23743-2.58564"/><path class="cls-4" d="m376.73747,462.84603c9.37433,1.13423,19.03662,1.93983,28.15599-.42361,4.79936-1.24383,9.70025-3.68773,11.72244-8.02614-1.15689-1.23296-3.53198-.73318-4.40318.69809-.8712,1.43127-.44938,3.33167.60494,4.64583s2.62345,2.15144,4.19117,2.85819c4.38945,1.97882,9.14076,3.22311,13.97324,3.65937,2.82193.25475,5.90206.16589,8.15621-1.47512s2.97322-5.33545.73116-6.99151c-.23309-.17217-.49571-.31931-.78602-.36767-1.17646-.19599-1.94016,1.40035-1.39692,2.41591s1.76736,1.49007,2.89991,1.8518c5.84051,1.86542,11.96321,2.92305,18.11796,3.12969,4.6706.15681,9.82318-.36843,13.07776-3.57118.92573-.91099,1.68264-2.14427,1.4472-3.39358s-1.88827-2.2155-2.96556-1.47182c-1.57024,1.08397.01559,3.39416,1.60486,4.45255,3.0092,2.00401,6.28471,3.79073,9.89715,4.40206s7.63199-.11924,10.23743-2.58564"/><rect class="cls-4" x="374.84133" y="474.91355" width="116.5" height="71"/><rect class="cls-4" x="375.50322" y="399.42969" width="116.5" height="71"/><path class="cls-3" d="m437.22665,474.29534c-.05694-5.56318,1.53567-11.02079,3.59769-16.18803,3.14289-7.8758,8.10217-15.89555,16.13655-18.60751,2.45741-.82949,5.23444-1.08545,7.59776-.01697,2.9078,1.31464,4.64833,4.3633,5.59667,7.4103.88619,2.84731,1.20726,6.09807-.27036,8.68828-1.64307,2.88022-5.04324,4.20734-8.23981,5.08898-4.74202,1.30788-9.66848,2.12092-14.111,4.23312s-8.47165,5.86769-9.31573,10.71381c-1.05523-4.51361-2.48345-8.93996-4.26533-13.21911-1.73055-4.1559-3.82504-8.21824-6.79577-11.6007s-6.89441-6.06077-11.31342-6.92026c-2.81522-.54755-5.93881-.27796-8.22065,1.45942-2.16098,1.64535-3.25189,4.33681-3.88052,6.97913-.61173,2.57129-.87475,5.28719-.22033,7.84795,1.20603,4.7192,5.76656,8.36539,10.63548,8.50319,3.48109.09852,6.84375-1.40442,10.32617-1.42473,2.43267-.01419,4.81136.697,7.08776,1.55495,3.1795,1.19831,6.72869,3.42313,6.66501,6.82035.20573.04154.09864-.38005-.10276-.32101s-.25362.31498-.27098.52414c-.66874,8.05353-2.7258,15.98996-6.05327,23.35436-1.66735,3.69021-3.69785,7.2983-6.6442,10.07619s-6.92812,4.65593-10.96672,4.36028-7.97728-3.09929-8.90068-7.04201c3.62977.06151,7.25725-1.49399,9.71492-4.16585s3.70534-6.41639,3.34143-10.0284c-.81496,1.64047-2.58363,2.68423-4.40238,2.902s-3.66745-.30907-5.27671-1.18403c-4.39993-2.39227-7.11947-7.56136-6.59878-12.54245,10.14035,5.43686,23.51855,4.08458,32.36578-3.27156,1.50272-1.24946,2.79692-2.74103,2.7842-3.98384Z"/><path class="cls-3" d="m437.88854,398.81147c-.05694-5.56318,1.53567-11.02079,3.59769-16.18803,3.14289-7.8758,8.10217-15.89555,16.13655-18.60751,2.45741-.82949,5.23444-1.08545,7.59776-.01697,2.9078,1.31464,4.64833,4.3633,5.59667,7.4103.88619,2.84731,1.20726,6.09807-.27036,8.68828-1.64307,2.88022-5.04324,4.20734-8.23981,5.08898-4.74202,1.30788-9.66848,2.12092-14.111,4.23312s-8.47165,5.86769-9.31573,10.71381c-1.05523-4.51361-2.48345-8.93996-4.26533-13.21911-1.73055-4.1559-3.82504-8.21824-6.79577-11.6007s-6.89441-6.06077-11.31342-6.92026c-2.81522-.54755-5.93881-.27796-8.22065,1.45942-2.16098,1.64535-3.25189,4.33681-3.88052,6.97913-.61173,2.57129-.87475,5.28719-.22033,7.84795,1.20603,4.7192,5.76656,8.36539,10.63548,8.50319,3.48109.09852,6.84375-1.40442,10.32617-1.42473,2.43267-.01419,4.81136.697,7.08776,1.55495,3.1795,1.19831,6.72869,3.42313,6.66501,6.82035.20573.04154.09864-.38005-.10276-.32101s-.25362.31498-.27098.52414c-.66874,8.05353-2.7258,15.98996-6.05327,23.35436-1.66735,3.69021-3.69785,7.2983-6.6442,10.07619s-6.92812,4.65593-10.96672,4.36028-7.97728-3.09929-8.90068-7.04201c3.62977.06151,7.25725-1.49399,9.71492-4.16585s3.70534-6.41639,3.34143-10.0284c-.81496,1.64047-2.58363,2.68423-4.40238,2.902s-3.66745-.30907-5.27671-1.18403c-4.39993-2.39227-7.11947-7.56136-6.59878-12.54245,10.14035,5.43686,23.51855,4.08458,32.36578-3.27156,1.50272-1.24946,2.79692-2.74103,2.7842-3.98384Z"/><path class="cls-3" d="m437.90327,472.54839c1.1811,5.26482,2.91551,10.49549,5.97273,15.14271s7.53345,8.70026,13.14277,10.83772c1.58951.60569,3.29265,1.05878,5.02492,1.01689,1.56678-.03789,3.08746-.4789,4.51927-1.03839,2.73108-1.06719,5.23276-2.58432,7.33583-4.44877.7949-.70471,1.58089-1.57471,1.49852-2.56357-2.13162.65187-4.11248,1.66527-6.28736,2.19583-3.09507.75504-6.89852.26621-8.71342-2.05955-1.03665-1.32844-1.25269-3.00527-1.43854-4.60698-.17963-1.54809-.35926-3.09618-.53889-4.64427,2.94004,1.90058,7.08309,2.2543,10.38556.88668,3.30247-1.36762,5.62477-4.39877,5.82139-7.59831.03548-.5774-.05932-1.26094-.63149-1.54786-.71305-.35757-1.55971.1534-2.22367.57754-3.38655,2.16332-7.81038,2.52395-11.99561,2.67959-3.52022.13091-7.04488.16989-10.56775.11688-1.58504-.02385-3.22621-.078-4.64923-.69101-1.04325-.44941-1.89714-1.16978-2.73263-1.87862-1.14267-.96946-2.28534-1.93893-3.92241-2.37649Z"/><path class="cls-3" d="m438.56516,397.06452c1.1811,5.26482,2.91551,10.49549,5.97273,15.14271s7.53345,8.70026,13.14277,10.83772c1.58951.60569,3.29265,1.05878,5.02492,1.01689,1.56678-.03789,3.08746-.4789,4.51927-1.03839,2.73108-1.06719,5.23276-2.58432,7.33583-4.44877.7949-.70471,1.58089-1.57471,1.49852-2.56357-2.13162.65187-4.11248,1.66527-6.28736,2.19583-3.09507.75504-6.89852.26621-8.71342-2.05955-1.03665-1.32844-1.25269-3.00527-1.43854-4.60698-.17963-1.54809-.35926-3.09618-.53889-4.64427,2.94004,1.90058,7.08309,2.2543,10.38556.88668,3.30247-1.36762,5.62477-4.39877,5.82139-7.59831.03548-.5774-.05932-1.26094-.63149-1.54786-.71305-.35757-1.55971.1534-2.22367.57754-3.38655,2.16332-7.81038,2.52395-11.99561,2.67959-3.52022.13091-7.04488.16989-10.56775.11688-1.58504-.02385-3.22621-.078-4.64923-.69101-1.04325-.44941-1.89714-1.16978-2.73263-1.87862-1.14267-.96946-2.28534-1.93893-3.92241-2.37649Z"/></svg>