<?xml version="1.0" encoding="UTF-8"?><svg id="Layer_1" xmlns="http://www.w3.org/2000/svg" viewBox="0 0 1920 1080"><defs><style>.cls-1,.cls-2,.cls-3,.cls-4,.cls-5,.cls-6{stroke-miterlimit:10;}.cls-1,.cls-2,.cls-3,.cls-4,.cls-5,.cls-6,.cls-7,.cls-8{stroke:#f9a049;}.cls-1,.cls-2,.cls-4,.cls-6{stroke-width:4px;}.cls-1,.cls-8,.cls-9{fill:#fff;}.cls-2,.cls-7,.cls-10{fill:#f9a049;}.cls-3{stroke-width:2px;}.cls-3,.cls-4,.cls-5{fill:none;}.cls-7,.cls-8,.cls-9{stroke-linejoin:round;stroke-width:7px;}.cls-9{stroke:#000;}.cls-10{stroke-width:0px;}</style></defs><polygon class="cls-10" points="1596.61085 640.1684 1599.61811 649.90009 1609.3498 649.90009 1601.4767 655.91461 1604.48396 665.64631 1596.61085 659.63179 1588.73774 665.64631 1591.745 655.91461 1583.87189 649.90009 1593.60359 649.90009 1596.61085 640.1684"/><polygon class="cls-10" points="1644.14579 622.25428 1647.15305 631.98598 1656.88475 631.98598 1649.01164 638.0005 1652.0189 647.73219 1644.14579 641.71768 1636.27268 647.73219 1639.27994 638.0005 1631.40684 631.98598 1641.13853 631.98598 1644.14579 622.25428"/><polygon class="cls-10" points="1651.51196 660.47115 1654.51922 670.20285 1664.25092 670.20285 1656.37781 676.21737 1659.38507 685.94907 1651.51196 679.93455 1643.63886 685.94907 1646.64612 676.21737 1638.77301 670.20285 1648.5047 670.20285 1651.51196 660.47115"/><polygon class="cls-10" points="1606.90248 714.26483 1609.90974 723.99653 1619.64144 723.99653 1611.76833 730.01105 1614.77559 739.74274 1606.90248 733.72822 1599.02937 739.74274 1602.03663 730.01105 1594.16352 723.99653 1603.89522 723.99653 1606.90248 714.26483"/><polygon class="cls-10" points="1654.74491 714.26483 1657.75217 723.99653 1667.48386 723.99653 1659.61075 730.01105 1662.61801 739.74274 1654.74491 733.72822 1646.8718 739.74274 1649.87906 730.01105 1642.00595 723.99653 1651.73765 723.99653 1654.74491 714.26483"/><polygon class="cls-10" points="1624.00494 755.76483 1627.0122 765.49653 1636.7439 765.49653 1628.87079 771.51105 1631.87805 781.24274 1624.00494 775.22822 1616.13184 781.24274 1619.1391 771.51105 1611.26599 765.49653 1620.99768 765.49653 1624.00494 755.76483"/><polygon class="cls-10" points="1691.68074 634.99324 1694.688 644.72494 1704.4197 644.72494 1696.54659 650.73945 1699.55385 660.47115 1691.68074 654.45663 1683.80763 660.47115 1686.81489 650.73945 1678.94178 644.72494 1688.67348 644.72494 1691.68074 634.99324"/><polygon class="cls-10" points="1736.3436 622.25428 1739.35086 631.98598 1749.08256 631.98598 1741.20945 638.0005 1744.21671 647.73219 1736.3436 641.71768 1728.47049 647.73219 1731.47775 638.0005 1723.60464 631.98598 1733.33634 631.98598 1736.3436 622.25428"/><polygon class="cls-10" points="1704.4197 679.77636 1707.42696 689.50806 1717.15865 689.50806 1709.28555 695.52258 1712.29281 705.25428 1704.4197 699.23976 1696.54659 705.25428 1699.55385 695.52258 1691.68074 689.50806 1701.41244 689.50806 1704.4197 679.77636"/><polygon class="cls-10" points="1719.54164 765.74392 1722.5489 775.47561 1732.2806 775.47561 1724.40749 781.49013 1727.41475 791.22183 1719.54164 785.20731 1711.66853 791.22183 1714.67579 781.49013 1706.80268 775.47561 1716.53438 775.47561 1719.54164 765.74392"/><polygon class="cls-10" points="1704.4197 728.75428 1707.42696 738.48598 1717.15865 738.48598 1709.28555 744.5005 1712.29281 754.23219 1704.4197 748.21768 1696.54659 754.23219 1699.55385 744.5005 1691.68074 738.48598 1701.41244 738.48598 1704.4197 728.75428"/><polygon class="cls-10" points="1740.9197 705.25428 1743.92696 714.98598 1753.65865 714.98598 1745.78555 721.0005 1748.79281 730.73219 1740.9197 724.71768 1733.04659 730.73219 1736.05385 721.0005 1728.18074 714.98598 1737.91244 714.98598 1740.9197 705.25428"/><rect class="cls-3" x="1583.48386" y="624.09661" width="168" height="168" rx="20" ry="20"/><path class="cls-2" d="m1674.27582,624.90296c-.91418-20.31168,8.73642-39.8414,21.59821-55.58861,14.06868-17.22487,33.44359-31.56021,55.58723-33.62982,2.51704-.23525,5.151-.29234,7.46427.72726,3.47608,1.53212,5.58351,5.32888,5.89397,9.11493s-.92532,7.54612-2.63093,10.94044c-4.53648,9.02802-12.27731,15.98545-20.11839,22.35744-13.07173,10.62263-26.93691,20.26865-41.44187,28.83115-9.30675,5.49392-19.12742,10.74986-26.35248,17.24721Z"/><path class="cls-2" d="m1673.75329,625.7422c1.55064-9.83273-2.99566-19.5013-7.56272-28.34601-7.5651-14.65079-15.67247-29.27913-27.08996-41.17522-11.41749-11.8961-26.63144-20.93624-43.09758-21.79794-4.94564-.25881-10.18095.30887-14.23549,3.15265-4.63915,3.25382-6.95462,8.94025-8.01855,14.50595-1.16336,6.08589-1.10444,12.4538.61129,18.4076,4.3908,15.23663,18.84201,25.56344,33.75053,30.96436,14.90852,5.40092,30.92175,7.07642,46.02531,11.90513,8.37143,2.6764,17.26641,7.18125,19.61718,12.38349Z"/><path class="cls-2" d="m1674.0318,622.13721c1.58481,11.191-2.71529,22.46329-8.69322,32.05571-5.97793,9.59242-13.6419,18.03045-19.86138,27.46804-13.32751,20.22347-19.63702,44.97863-17.6156,69.11419-11.01206-10.54479-15.78932-27.16986-12.05504-41.95205-2.65586,7.51032-12.30326,9.38652-20.26879,9.48104-3.02792.03593-6.1254-.02285-8.97009-1.0608-9.65714-3.52361-12.03995-15.84269-12.92077-26.08477,3.19289,6.2702,12.54923,4.5916,18.92417,1.61332,23.71107-11.07749,44.91917-27.47351,61.61038-47.63112,7.13013-8.6109,13.81539-18.20928,19.85035-23.00355Z"/><path class="cls-2" d="m1672.59712,624.28757c4.23738.21349,7.65855,3.7675,9.30771,7.67662s1.96473,8.22754,2.81741,12.38372c5.03021,24.51846,31.8259,42.2992,56.37223,37.40676,12.57213-2.50581,23.56683-9.88832,35.55575-14.42741,17.07105-6.46323,36.33192-6.97203,53.72039-1.4191-2.44279-6.85945-9.231-11.43364-16.29821-13.18685-7.06721-1.75322-14.47848-1.14374-21.73341-.52313,4.14235-6.21063,12.67538-7.34748,18.98023-11.34495,9.48244-6.01217,13.15192-19.65926,7.96332-29.61624-18.00124,6.90094-26.25732,28.6068-43.37755,37.4705-19.05469,9.86523-42.81628.58194-59.08881-13.40407-5.52025-4.74458-10.69216-10.08702-17.20277-13.34219s-14.93103-3.98708-27.01628,2.32633Z"/><line class="cls-6" x1="1670.04049" y1="624.9194" x2="1670.04049" y2="791.27381"/><ellipse class="cls-10" cx="1637.13829" cy="1005.0238" rx="12.25" ry="11.08728"/><ellipse class="cls-10" cx="1597.32725" cy="1024.28046" rx="12.25" ry="11.08728"/><ellipse class="cls-10" cx="1564.07157" cy="990.06724" rx="12.25" ry="11.08728"/><ellipse class="cls-10" cx="1538.07157" cy="1032.68824" rx="12.25" ry="11.08728"/><ellipse class="cls-10" cx="1514.36956" cy="1005.0238" rx="12.25" ry="11.08728"/><ellipse class="cls-10" cx="1523.42658" cy="962.42432" rx="12.25" ry="11.08728"/><rect class="cls-4" x="1524.44913" y="918.82963" width="92.8918" height="156.99996" rx="20" ry="20" transform="translate(2568.22464 -573.56542) rotate(90)"/><line class="cls-1" x1="1570.89503" y1="952.0025" x2="1570.89503" y2="1042.65672"/><line class="cls-1" x1="1649.39501" y1="997.32961" x2="1492.39505" y2="997.32961"/><path class="cls-2" d="m1572.84421,948.66003c.45175-10.77686,1.61079-21.68015,5.52135-31.73263s10.85482-19.26808,20.5136-24.0694c3.9794-1.97814,9.07163-3.06104,12.65035-.4264,4.63962,3.41568,3.7777,10.58698,1.62543,15.93119-7.49717,18.61589-23.9549,31.86306-40.31073,40.29724Z"/><path class="cls-2" d="m1572.69362,952.55752c.39049-14.73634-5.81757-28.80019-12.66469-41.85504-1.9348-3.68893-3.96214-7.38937-6.80279-10.43607-3.14325-3.37125-8.12517-5.91517-12.29372-3.9483-2.26392,1.0682-3.81498,3.30036-4.58454,5.68241-1.33208,4.12324-.55558,8.69575,1.22181,12.64751s4.4876,7.39854,7.1706,10.80105c3.28044,4.16016,6.56088,8.32031,9.84132,12.48047,2.25169,2.85553,4.5354,5.743,7.42258,7.95397,4.60678,3.52782,10.38648,5.07223,10.68943,6.674Z"/><ellipse class="cls-10" cx="1616.74299" cy="971.29828" rx="12.25" ry="11.08728"/><path class="cls-2" d="m1572.09077,954.81065c-11.26577,19.39304-15.80868,41.92387-18.62742,64.17386-3.75542-9.201-5.73564-19.12282-5.79995-29.0605-5.68052,8.6023-15.48445,14.34311-25.76616,15.08768-3.23415.23421-7.5189-.9833-7.52768-4.2259,19.47697-16.49425,38.68557-33.30541,57.61562-50.42458.43739-.39555-.72514-.32122.10559,4.44944Z"/><path class="cls-2" d="m1575.32138,953.08667c6.40732.19203,11.71912,4.91046,15.90861,9.76214,11.56941,13.39808,19.34965,30.03309,22.21653,47.50136-8.44344-3.12427-15.62907-9.51781-19.71385-17.54073.01943,6.92652-1.46158,13.85345-4.31167,20.16645-.72302,1.60151-2.03141,3.42917-3.75656,3.09534-1.75198-8.60805-3.5066-17.22698-5.93943-25.66791-3.6877-12.79478-8.98714-25.94892-4.40362-37.31665Z"/><path class="cls-4" d="m1676.65857,860.29886c6.56217-5.62638,16.54662-5.21673,24.94403-2.84833,8.39741,2.3684,16.43634,6.37278,25.15892,6.9454,12.69181.83321,24.67897-5.69439,37.33883-6.90385,19.58542-1.87109,38.55693,9.06885,58.19747,7.86479,2.46924-.15138,4.96859-.50771,7.20819-1.53181,3.83187-1.75219,7.94845-5.44879,11.57337-3.31941"/><path class="cls-4" d="m1676.65857,831.26102c5.74581-5.26443,14.47217-5.97634,22.18037-4.58227s14.9897,4.56617,22.67469,6.0802c10.46049,2.06083,21.37383.96832,31.65178-1.84983,10.22207-2.80282,20.43189-7.34134,30.9678-6.11788,9.39273,1.09071,17.65032,6.64819,26.8437,8.8405,9.98914,2.38207,20.93905.52532,29.55257-5.01116"/><path class="cls-4" d="m1677.79136,1023.44676c3.53255-3.17809,7.39325-6.18365,11.93303-7.58703,14.78663-4.57099,29.58962,9.05411,45.03014,7.99168,7.9623-.54787,15.05614-4.93674,22.45476-7.92986,13.49801-5.46065,28.81276-6.31188,42.83279-2.38075,6.49948,1.82242,12.77879,4.64752,19.49179,5.3547,6.71299.70718,14.30286-1.26452,17.89196-6.98141"/><path class="cls-4" d="m1677.55683,985.01289c8.00686-10.74973,23.50422-12.46063,36.77718-10.59116,13.27296,1.86947,26.50934,6.36364,39.77815,4.46495,12.27584-1.7566,23.2548-8.84596,35.47871-10.93357,7.99327-1.3651,16.35551-.50014,23.90014,2.47213,8.33165,3.28233,17.28867,9.1485,25.43379,5.42734"/><path class="cls-4" d="m1676.65857,952.45884c.86563-7.47369,8.07219-13.05543,15.58662-14.4622,7.51443-1.40677,15.23823.49146,22.53186,2.75877s14.61167,4.94507,22.25857,5.13723c18.51221.46522,35.38641-13.61528,53.80003-11.68214,8.27209.86844,15.82872,4.92206,23.90988,6.86461,8.08116,1.94254,17.97728,1.08371,22.75867-5.61069"/><path class="cls-4" d="m1674.9248,904.20703c4.46674-7.00554,15.03539-7.53342,23.18714-5.04547s15.7152,7.14717,24.24346,7.77763c13.57749,1.00373,25.63893-8.33094,39.09767-10.32308,14.64054-2.16707,29.01381,4.5041,43.73616,6.079,11.05279,1.18236,22.43195-.58687,32.53171-5.05803"/><line class="cls-9" x1="1768.23035" y1="796.47113" x2="1837.45792" y2="862.76372"/><path class="cls-4" d="m1676.65857,860.29886c6.56217-5.62638,16.54662-5.21673,24.94403-2.84833,8.39741,2.3684,16.43634,6.37278,25.15892,6.9454,12.69181.83321,24.67897-5.69439,37.33883-6.90385,19.58542-1.87109,38.55693,9.06885,58.19747,7.86479,2.46924-.15138,4.96859-.50771,7.20819-1.53181,3.83187-1.75219,7.94845-5.44879,11.57337-3.31941"/><path class="cls-4" d="m1676.65857,831.26102c5.74581-5.26443,14.47217-5.97634,22.18037-4.58227s14.9897,4.56617,22.67469,6.0802c10.46049,2.06083,21.37383.96832,31.65178-1.84983,10.22207-2.80282,20.43189-7.34134,30.9678-6.11788,9.39273,1.09071,17.65032,6.64819,26.8437,8.8405,9.98914,2.38207,20.93905.52532,29.55257-5.01116"/><path class="cls-4" d="m1677.79136,1023.44676c3.53255-3.17809,7.39325-6.18365,11.93303-7.58703,14.78663-4.57099,29.58962,9.05411,45.03014,7.99168,7.9623-.54787,15.05614-4.93674,22.45476-7.92986,13.49801-5.46065,28.81276-6.31188,42.83279-2.38075,6.49948,1.82242,12.77879,4.64752,19.49179,5.3547,6.71299.70718,14.30286-1.26452,17.89196-6.98141"/><path class="cls-4" d="m1677.55683,985.01289c8.00686-10.74973,23.50422-12.46063,36.77718-10.59116,13.27296,1.86947,26.50934,6.36364,39.77815,4.46495,12.27584-1.7566,23.2548-8.84596,35.47871-10.93357,7.99327-1.3651,16.35551-.50014,23.90014,2.47213,8.33165,3.28233,17.28867,9.1485,25.43379,5.42734"/><path class="cls-4" d="m1676.65857,952.45884c.86563-7.47369,8.07219-13.05543,15.58662-14.4622,7.51443-1.40677,15.23823.49146,22.53186,2.75877s14.61167,4.94507,22.25857,5.13723c18.51221.46522,35.38641-13.61528,53.80003-11.68214,8.27209.86844,15.82872,4.92206,23.90988,6.86461,8.08116,1.94254,17.97728,1.08371,22.75867-5.61069"/><path class="cls-4" d="m1674.9248,904.20703c4.46674-7.00554,15.03539-7.53342,23.18714-5.04547s15.7152,7.14717,24.24346,7.77763c13.57749,1.00373,25.63893-8.33094,39.09767-10.32308,14.64054-2.16707,29.01381,4.5041,43.73616,6.079,11.05279,1.18236,22.43195-.58687,32.53171-5.05803"/><line class="cls-9" x1="1768.23035" y1="796.47113" x2="1837.45792" y2="862.76372"/><path class="cls-4" d="m1676.65857,860.29886c6.56217-5.62638,16.54662-5.21673,24.94403-2.84833,8.39741,2.3684,16.43634,6.37278,25.15892,6.9454,12.69181.83321,24.67897-5.69439,37.33883-6.90385,19.58542-1.87109,38.55693,9.06885,58.19747,7.86479,2.46924-.15138,4.96859-.50771,7.20819-1.53181,3.83187-1.75219,7.94845-5.44879,11.57337-3.31941"/><path class="cls-4" d="m1676.65857,831.26102c5.74581-5.26443,14.47217-5.97634,22.18037-4.58227s14.9897,4.56617,22.67469,6.0802c10.46049,2.06083,21.37383.96832,31.65178-1.84983,10.22207-2.80282,20.43189-7.34134,30.9678-6.11788,9.39273,1.09071,17.65032,6.64819,26.8437,8.8405,9.98914,2.38207,20.93905.52532,29.55257-5.01116"/><path class="cls-4" d="m1677.79136,1023.44676c3.53255-3.17809,7.39325-6.18365,11.93303-7.58703,14.78663-4.57099,29.58962,9.05411,45.03014,7.99168,7.9623-.54787,15.05614-4.93674,22.45476-7.92986,13.49801-5.46065,28.81276-6.31188,42.83279-2.38075,6.49948,1.82242,12.77879,4.64752,19.49179,5.3547,6.71299.70718,14.30286-1.26452,17.89196-6.98141"/><path class="cls-4" d="m1677.55683,985.01289c8.00686-10.74973,23.50422-12.46063,36.77718-10.59116,13.27296,1.86947,26.50934,6.36364,39.77815,4.46495,12.27584-1.7566,23.2548-8.84596,35.47871-10.93357,7.99327-1.3651,16.35551-.50014,23.90014,2.47213,8.33165,3.28233,17.28867,9.1485,25.43379,5.42734"/><path class="cls-4" d="m1676.65857,952.45884c.86563-7.47369,8.07219-13.05543,15.58662-14.4622,7.51443-1.40677,15.23823.49146,22.53186,2.75877s14.61167,4.94507,22.25857,5.13723c18.51221.46522,35.38641-13.61528,53.80003-11.68214,8.27209.86844,15.82872,4.92206,23.90988,6.86461,8.08116,1.94254,17.97728,1.08371,22.75867-5.61069"/><path class="cls-4" d="m1674.9248,904.20703c4.46674-7.00554,15.03539-7.53342,23.18714-5.04547s15.7152,7.14717,24.24346,7.77763c13.57749,1.00373,25.63893-8.33094,39.09767-10.32308,14.64054-2.16707,29.01381,4.5041,43.73616,6.079,11.05279,1.18236,22.43195-.58687,32.53171-5.05803"/><line class="cls-9" x1="1768.23035" y1="796.47113" x2="1837.45792" y2="862.76372"/><path class="cls-4" d="m1676.65857,860.29886c6.56217-5.62638,16.54662-5.21673,24.94403-2.84833,8.39741,2.3684,16.43634,6.37278,25.15892,6.9454,12.69181.83321,24.67897-5.69439,37.33883-6.90385,19.58542-1.87109,38.55693,9.06885,58.19747,7.86479,2.46924-.15138,4.96859-.50771,7.20819-1.53181,3.83187-1.75219,7.94845-5.44879,11.57337-3.31941"/><path class="cls-4" d="m1676.65857,831.26102c5.74581-5.26443,14.47217-5.97634,22.18037-4.58227s14.9897,4.56617,22.67469,6.0802c10.46049,2.06083,21.37383.96832,31.65178-1.84983,10.22207-2.80282,20.43189-7.34134,30.9678-6.11788,9.39273,1.09071,17.65032,6.64819,26.8437,8.8405,9.98914,2.38207,20.93905.52532,29.55257-5.01116"/><path class="cls-4" d="m1677.79136,1023.44676c3.53255-3.17809,7.39325-6.18365,11.93303-7.58703,14.78663-4.57099,29.58962,9.05411,45.03014,7.99168,7.9623-.54787,15.05614-4.93674,22.45476-7.92986,13.49801-5.46065,28.81276-6.31188,42.83279-2.38075,6.49948,1.82242,12.77879,4.64752,19.49179,5.3547,6.71299.70718,14.30286-1.26452,17.89196-6.98141"/><path class="cls-4" d="m1677.55683,985.01289c8.00686-10.74973,23.50422-12.46063,36.77718-10.59116,13.27296,1.86947,26.50934,6.36364,39.77815,4.46495,12.27584-1.7566,23.2548-8.84596,35.47871-10.93357,7.99327-1.3651,16.35551-.50014,23.90014,2.47213,8.33165,3.28233,17.28867,9.1485,25.43379,5.42734"/><line class="cls-8" x1="1677.55683" y1="985.01289" x2="1725.77404" y2="1050.41853"/><path class="cls-4" d="m1676.65857,952.45884c.86563-7.47369,8.07219-13.05543,15.58662-14.4622,7.51443-1.40677,15.23823.49146,22.53186,2.75877s14.61167,4.94507,22.25857,5.13723c18.51221.46522,35.38641-13.61528,53.80003-11.68214,8.27209.86844,15.82872,4.92206,23.90988,6.86461,8.08116,1.94254,17.97728,1.08371,22.75867-5.61069"/><path class="cls-4" d="m1674.9248,904.20703c4.46674-7.00554,15.03539-7.53342,23.18714-5.04547s15.7152,7.14717,24.24346,7.77763c13.57749,1.00373,25.63893-8.33094,39.09767-10.32308,14.64054-2.16707,29.01381,4.5041,43.73616,6.079,11.05279,1.18236,22.43195-.58687,32.53171-5.05803"/><line class="cls-8" x1="1768.23035" y1="796.47113" x2="1837.45792" y2="862.76372"/><path class="cls-7" d="m1810.98097,836.30742c7.88606-19.02641,19.35224-39.97017,39.5211-44.14287,5.45008-1.12756,11.96018-.47135,15.28652,3.99073,5.25571,7.05021-1.18488,16.86559-8.05399,22.35586-14.04326,11.22435-31.39522,18.25614-49.29063,19.97474,3.68783-13.81562,3.4208-28.6634-.76142-42.33748-1.45898-4.77025-3.82991-9.86399-8.46088-11.71816-7.82432-3.13273-15.8231,5.33935-17.36219,13.6258-3.3104,17.8232,13.26139,36.45821,31.34925,35.25231-4.86461,21.99828-23.55856,40.29157-45.65705,44.67851-4.50789.8949-9.47473,1.18031-13.41792-1.18046-7.24165-4.33554-7.26692-14.63389-6.40314-23.02986,9.63734,9.18347,25.21521,9.47595,37.46419,4.26279s21.94426-14.89917,31.31146-24.35804c-1.56894,9.8674-3.14251,19.86709-2.14589,29.80861s4.87321,19.98572,12.52727,26.40774,19.5022,8.29917,27.80504,2.7413c5.95707-3.98762,9.31837-11.19535,9.60705-18.35806-3.64783,6.20407-10.75576,10.21227-17.95223,10.12336-8.5931-.10616-16.3754-5.67864-21.34528-12.68955s-7.60577-15.36585-10.16782-23.56882c-1.43679-4.60018-2.87357-9.20036-3.85344-11.83848Z"/><rect class="cls-4" x="1676.86897" y="796.47113" width="164" height="254"/><path class="cls-5" d="m5.39886,873.34214c92.76708-72.75403,209.88832-113.8813,327.77554-115.09881,20.33908-.21006,47.64776,7.97921,45.83563,28.23849-1.60889,17.98703-30.19543,22.56553-41.34064,8.35616s-5.94285-36.1845,6.56687-49.20866c12.50972-13.02416,30.28564-19.29734,47.35815-25.18387,248.09147-85.54087,501.14798-185.03496,686.31029-370.99609,6.25806-6.28506,12.67671-13.09732,14.7592-21.71872,2.08249-8.6214-2.04921-19.391-10.69333-21.37708-9.26849-2.12955-17.88527,6.88778-19.76752,16.20964-3.10192,15.3622,6.64252,31.29131,20.2563,39.05555,13.61379,7.76424,30.16614,8.64576,45.71052,6.64803,61.33135-7.88217,109.48023-55.36766,148.35621-103.45426,64.23541-79.45426,117.12682-168.06557,156.57419-262.31562"/><path class="cls-5" d="m99.80494,813.15145c-1.63462-7.22207-1.56947-14.82313.18868-22.01613.79754-3.26292,2.1839-6.73811,5.16522-8.28552.61692-.3202,1.39378-.53468,1.98311-.16616.36448.22792.57534.6325.74493,1.02751,1.80003,4.19265.75935,9.01765-.54161,13.39098-1.80458,6.06625-4.06346,11.99729-7.54033,16.04931Z"/><path class="cls-5" d="m99.99268,814.23536c-1.94667-8.75423-7.79313-16.56493-15.64391-20.89981-2.41406-1.33295-5.66415-2.25895-7.73147-.43395-1.74623,1.54155-1.69939,4.27437-1.15565,6.53933,1.5702,6.54069,6.25842,12.25937,12.36416,15.08179,4.68798,2.16706,10.7601,2.43808,12.16688-.28735Z"/><path class="cls-5" d="m94.04392,869.08092c.02405.67419.04809,1.34837.07214,2.02256,6.65086-7.84891,10.29542-17.99745,11.15307-28.24946.85765-10.25201-.9601-20.60912-3.40183-31.47991,2.87361,4.69635,6.0134,9.32499,10.19461,12.907,8.87312,7.60155,21.13272,9.52178,32.70376,11.14258"/><path class="cls-5" d="m234.8189,767.92937c.86715-6.85566,3.36929-13.49896,7.24027-19.22325,1.1367-1.68092,2.4876-3.3589,4.38445-4.07967s4.44196-.08338,5.17582,1.80844c.57849,1.49131-.10618,3.1516-.84087,4.57247-3.82124,7.39014-9.33866,13.89677-15.95966,16.922Z"/><path class="cls-5" d="m234.15599,769.18529c.76943-4.734,1.53923-9.57289.72778-14.29988s-3.50853-9.40614-7.91211-11.30647c-.83581-.36069-1.8556-.59893-2.61461-.09637-.63928.42329-.88026,1.23432-1.03731,1.98478-2.11161,10.09042,3.47192,21.27375,10.83625,23.71793Z"/><path class="cls-5" d="m219.1431,800.75982c11.36495-4.98253,18.13748-18.65977,16.93686-33.99257,2.0612,6.85963,4.95734,13.46794,8.60416,19.63266.88294,1.49256,1.84805,3.00043,3.27033,3.9926s3.41883,1.35402,4.89172.43864"/><path class="cls-5" d="m910.66685,486.22654c-1.70868-4.5248-2.76716-9.29455-3.13285-14.11737-.2062-2.71935-.08586-5.74698,1.7766-7.73912.2958-.3164.65382-.60917,1.08216-.67336,1.01224-.1517,1.71968.96569,2.04638,1.9357,2.08462,6.18952.4359,12.94457-1.22168,19.26186-.11062.42157-.34317.93866-.77845.91639s-.12398-.92657.22784.41591Z"/><path class="cls-5" d="m910.25161,485.46003c-1.87661-5.87538-7.09761-10.55235-13.14327-11.77374-.84001-.16971-1.80756-.24667-2.46194.30668-.59958.50702-.72883,1.38163-.67834,2.16522.2201,3.41587,2.94513,6.11456,5.73252,8.10128,2.02582,1.44391,4.28527,2.73782,6.76684,2.91283s5.20824-1.0589,3.78418-1.71228Z"/><path class="cls-5" d="m908.88335,500.14717c2.52274-4.67364,2.76468-10.51292,1.30105-15.28793.96642,1.15125,2.09305,2.19483,3.432,2.87787,1.11618.56939,2.34569.8725,3.56264,1.17101,2.2786.55893,4.57457,1.12045,6.91812,1.23067s4.76561-.25915,6.78552-1.45262"/><path class="cls-5" d="m1009.05488,410.57551c-2.20057-4.84056-3.29141-10.18164-3.16515-15.49743.01982-.83452.17738-1.8345.94213-2.16911,1.16141-.50816,2.14584.99906,2.48604,2.22028,1.32319,4.74989,1.86027,9.71778,1.58281,14.64071-.0235.41687-.06156.85854-.30883,1.19498-.37172.5058-1.08123.605-1.7089.59893-4.86502-.04704-9.28043-4.41551-9.37946-9.27975,1.46942-.88677,3.22581.51698,4.36131,1.80391,3.14242,3.56147,6.28484,7.12294,5.19005,6.48749Z"/><path class="cls-5" d="m1012.05589,432.61205c2.53162-7.55016,1.61239-16.18378-2.10549-23.13649,2.98796,2.59039,5.99234,5.19294,9.35646,7.27157,1.65199,1.02073,3.45881,1.93136,5.39936,2.00378,3.37753.12605,6.31343-2.28263,8.47705-4.87924"/><path class="cls-5" d="m1239.62079,306.03685c-1.62565-6.19143-3.20618-12.9915-.49152-18.78867.16701-.35666.36997-.72768.71929-.90954.87654-.45633,1.79578.55784,2.16661,1.47383,1.65196,4.08052.72314,8.69725-.26933,12.98614-.77264,3.33888-1.89231,7.09049-4.97651,8.58476-2.37026,1.14837-5.49686.42074-7.11651-1.65618s-1.56349-5.28658.12783-7.30557c.34289-.40932.76024-.7814,1.27068-.93818,1.47399-.45273,2.77934.97184,3.79621,2.13097,1.87786,2.14058,4.21659,3.87481,4.77325,4.42243Z"/><path class="cls-5" d="m1238.55278,305.19415c2.94843,5.82651,3.31646,12.90199.98845,19.00296,1.09335-3.10128,2.19764-6.25602,2.36405-9.54018s-.73455-6.77563-3.12604-9.03266c-.0636.92132.60554,1.72608,1.31021,2.32301,2.24657,1.90304,5.31674,2.79749,8.23388,2.39882s5.63473-2.0841,7.2883-4.52016"/><path class="cls-5" d="m1293.43199,242.01528c-3.19414-6.30648-5.68915-13.44313-4.22678-20.35947.08221-.38879.19208-.80137.49228-1.06175.9524-.82611,2.19738.6422,2.55883,1.85004,1.86651,6.23721,2.46474,12.85105,1.74767,19.32195-2.31604-4.0821-7.26192-5.72447-11.76911-7.03322-.52689-.15299-1.07182-.30759-1.61622-.23945-1.42118.17788-2.24952,1.87977-1.96158,3.2828s1.35975,2.50706,2.47937,3.40029c2.47854,1.97739,5.77879,3.37144,8.80472,2.42435s4.97168-5.064,2.93641-7.49524c1.07763,3.37693,3.48872,6.12736,5.5311,9.02453s3.81934,6.31849,3.32615,9.82871c-.36074,2.56754-2.00261,4.92262-4.28692,6.14912-.30133.16179-.66819.3055-.97352.15139s-.30078-.73808.04095-.75215"/><path class="cls-5" d="m1295.19472,239.81126c3.35669.9917,6.84081,1.99404,10.30614,1.50174s6.91699-2.91823,7.42105-6.38187"/></svg>