<?xml version="1.0" encoding="UTF-8"?><svg id="Layer_1" xmlns="http://www.w3.org/2000/svg" viewBox="0 0 258.75203 351.74104"><defs><style>.cls-1{fill:none;stroke:#f9a049;stroke-miterlimit:10;}</style></defs><path class="cls-1" d="m58.27185,52.01123l-.9722-4.27533c2.15715,24.592,4.31431,49.184,6.47146,73.776-.51138-3.08023-1.02276-6.16046-1.53414-9.24069"/><path class="cls-1" d="m58.26001,49.14492c20.53233-2.17869,41.06467-4.35738,61.597-6.53607-1.13816-.09564-2.27632-.19128-3.41448-.28691"/><path class="cls-1" d="m62.23063,122.839c19.83151-5.50925,39.66303-11.0185,59.49454-16.52775.29192-.0811.53959.20787.73063.44302s.54008.45872.76747.2585-.39668-.47203-.28148-.19181"/><path class="cls-1" d="m120.18971,44.78482c.1994,21.54786,1.22657,43.08804,3.07849,64.5571.81532-1.39807,1.1885-3.04968,1.05349-4.66248"/><path class="cls-1" d="m84.43335,43.76623c1.04691,24.11037,3.83051,48.14515,8.32209,71.85657-.59779-2.73183-1.19559-5.46366-1.79338-8.19549"/><path class="cls-1" d="m62.38176,83.61486c20.58208-6.80165,41.71842-11.92527,63.13041-15.3033-.72958.07363-1.45916.14726-2.18874.22089"/><path class="cls-1" d="m86.03189,45.09746c-1.70678-9.37959.90222-19.45659,6.9463-26.82943.75727-.92375,2.17278-1.84067,2.99438-.97363.37412.39482.40156.9956.39565,1.53948-.11087,10.20258-4.56679,20.28685-12.03568,27.23815-1.9921-3.7949-1.76155-8.34177-2.91232-12.47039s-4.92024-8.31531-9.05546-7.18849c-2.43032,4.43461-1.62531,10.14705,1.0784,14.42047s7.03436,7.28214,11.58685,9.48374c1.37706-3.01501,1.65498-6.51792.77056-9.71236-2.55392,2.26422-2.05738,6.27848-1.72072,9.67492.87995,8.8775-.88084,18.00023-5.00141,25.91257-.92928,1.78441-2.72602,3.78348-4.5718,2.983-.70561-1.86751-.58063-4.03189.33526-5.80576"/><path class="cls-1" d="m85.90218,46.09268c4.49862,6.31896,9.82305,12.04929,15.79509,16.9992.6682-.59513,1.3364-1.19026-15.79509-16.9992Z"/><path class="cls-1" d="m142.23212,92.5585c-1.50003,24.17657-1.52019,48.44488-.06033,72.62391-.7673-26.22079-.20293-52.48051,1.69021-78.64412,20.94289,6.84367,43.88596-.92577,65.72833,1.96404-.13674,1.13585-1.11568,2.11493-2.2515,2.25185.16446-.93582-.06254-1.9342-.61548-2.7069-5.28504,25.72276-7.6029,52.05391-6.89291,78.3044.02537.93794-.00602,2.01698-.73188,2.61155-.68691.56266-1.68732.43364-2.56176.27943-19.0004-3.35072-38.41413-4.35078-57.65826-2.97016,1.00989-1.14512,2.01979-2.29023,3.02968-3.43535"/><path class="cls-1" d="m173.91382,90.16664c-3.64857,25.90344-5.74277,52.02572-6.26757,78.17958-.43206-5.89068-1.21197-11.75582-2.33434-17.55471"/><path class="cls-1" d="m145.72406,123.42037c18.72838,2.91481,38.04082,2.02422,56.42145-2.60185.54867-.13809,1.20574-.39928,1.262-.96225s-1.11907-.62134-.8942-.10216"/><path class="cls-1" d="m174.72749,88.8589c.86307-6.66147,2.58168-13.21161,5.10029-19.4387.94714-2.34174,2.68079-5.04508,5.18684-4.72798,1.33037,3.00577.26492,6.50057-1.05787,9.50969-1.99105,4.52933-4.55221,8.80769-7.60387,12.70211-1.36665,1.74406-3.74648,3.55514-5.54266,2.25775,3.39556-6.59281,3.56071-14.75747.43453-21.4822-.99045-2.13057-3.03273-4.41484-5.26311-3.67612-1.11695.36994-1.8632,1.41811-2.3882,2.47112-1.97307,3.95741-1.8103,8.90397.41866,12.72311,2.22896,3.81914,6.45578,6.39381,10.87187,6.62233-.04953-1.27668-.09906-2.55335-.14858-3.83003-1.7343,9.88418-4.96618,19.5042-9.55136,28.43062-1.32221,2.57407-3.41518,5.45964-6.29453,5.17086,1.14874-3.48015,12.76633-3.02434,15.838-26.73257Z"/><path class="cls-1" d="m174.71848,83.99716c.60783,5.33237,1.75659,10.60294,3.42296,15.70459.78442,2.40155,1.73082,4.84223,3.50544,6.64042s4.57942,2.80125,6.89954,1.80136"/><path class="cls-1" d="m64.29877,186.75892c11.66937-4.06013,23.33875-8.12026,35.00812-12.18039,1.7226-.59935,3.7929-2.55596,2.43959-3.77871-.86114.17445-.98359,1.34178-.904,2.2168,2.57289,28.2827,5.14577,56.56539,7.71866,84.84809-19.53537-6.40363-40.7568-3.22941-61.05851.00745,4.77027-22.69985,3.42705-46.65451-3.85105-68.67877,8.31281-1.00815,16.48501-3.16902,20.64719-2.43447Z"/><path class="cls-1" d="m72.57355,181.76811c.08252,23.53899,2.16173,47.07066,6.20796,70.25942-.75606-1.5073-1.51212-3.01461-2.26818-4.52192"/><path class="cls-1" d="m55.14621,215.96516c16.49442-2.10903,32.76151-5.99131,48.43064-11.55837"/><path class="cls-1" d="m70.68565,180.04234c.06342-9.46653,2.69611-18.90349,7.54232-27.03574,3.16322,1.52402,3.47456,5.88848,2.91687,9.35512-1.32526,8.23804-5.03669,16.07805-10.56845,22.32474-.77303-5.19418-1.54606-10.38836-2.31909-15.58255-.3975-2.6709-1.54119-6.03929-4.24131-6.07221-1.83748-.0224-3.2308,1.66304-3.99616,3.33369-2.14493,4.68203-1.48721,10.52505,1.64493,14.61306,1.97792,2.58155,5.45353,4.51815,8.45294,3.26113,3.37224-1.41326,4.15248-5.77415,4.288-9.42804-1.94067,2.74887-1.76575,6.40246-1.65023,9.76537.189,5.50193.00663,11.01658-.54544,16.49401-.77958,7.73465-2.90645,16.31599-9.57412,20.31281-1.54408-2.30083-1.74576-5.43751-.50905-7.91714"/><path class="cls-1" d="m74.1866,177.61424c1.19045,5.92563,2.90887,11.7451,5.12825,17.3669.91398,2.31516,2.10052,4.79482,4.37297,5.81036,2.75178,1.22975,5.90554-.16677-9.50121-23.17726Z"/><path class="cls-1" d="m148.68713,214.79478c-3.17914,23.33176-6.35828,46.66352-9.53742,69.99528.30403-23.85466,2.94333-47.67899,7.86792-71.02178,19.32135,3.64229,39.57301,2.22953,58.20151-4.06013-.93572,2.00858-3.70996,2.89502-5.63698,1.80114-4.42657,30.5559-8.85313,61.1118-13.2797,91.66771-.08623.59526-.20656,1.25154-.68212,1.6198-.8098.62709-1.95972-.00006-2.78277-.60966-13.0133-9.63836-27.77674-16.90618-43.35151-21.34131-.28116-1.44599.31433-3.02734,1.47945-3.9287"/><path class="cls-1" d="m174.89548,214.80344c-2.82153,26.67103-6.97604,53.20099-12.44284,79.45778-1.14996-3.3229-1.91648-6.77832-2.27948-10.27579"/><path class="cls-1" d="m144.33245,243.2718c11.93876,1.95837,23.98463,3.26358,36.06577,3.90784,4.35828.23242,8.80975.36871,13.00118-.84806.38954-.11309.85704-.34845.83027-.75319s-.87126-.16978-.56127.09182"/><path class="cls-1" d="m160.92812,245.99228c1.08511.85732,2.56189-.39549,3.32319-1.55,6.43724-9.76196,9.70575-21.57822,9.20028-33.26062-.09038-2.0888.15538-4.8392,2.19117-5.31548,2.27016,1.73231,1.17257,5.81179-1.44465,6.954s-5.74474-.01111-7.87979-1.90744c-4.81691-4.27833-5.56222-12.39487-1.605-17.47889.6397-.82185,1.497-1.6187,2.5384-1.63045,1.9132-.02158,2.75743,2.36476,3.05422,4.25493,1.0835,6.90063,2.167,13.80127,3.2505,20.7019,4.8604-4.8223,8.8788-10.49096,11.81981-16.67388.87589-1.84139,1.2514-4.71118-.69652-5.3141-6.04438,3.19989-7.3059,11.15493-9.4982,17.695,1.36791,3.35974,1.38956,7.08645,1.71117,10.69971s1.06271,7.41246,3.50599,10.09377,7.07723,3.63795,9.69034,1.12186"/><path class="cls-1" d="m162.45154,18.2431c-1.08693,4.57745-2.74901,9.01802-4.93478,13.18418-.42265.80559-.90533,1.64263-1.70324,2.0796s-1.9946.26726-2.35618-.56753c.06943-1.09243.72798-2.12969,1.68708-2.65727,3.90831,6.13544,6.77632,12.93173,8.44511,20.01224.86881-6.56485,2.46835-14.18401,8.45274-17.01935-2.91638.9967-6.15832-1.12598-7.49457-3.90323s-1.25482-5.99806-2.09617-11.12864Z"/><path class="cls-1" d="m101.38921,143.44666c4.31714-3.80071,6.83517-9.56339,6.69125-15.31338-.83972,8.27144-1.18011,17.80624,4.83348,23.5472.79428.75827,1.81916,1.46009,2.90317,1.28462s1.84224-1.72137.99512-2.42013c-3.98065,4.82584-7.3836,10.12777-10.11309,15.75664-1.53026-4.34767-1.42253-9.07908-2.1974-13.62259s-2.80708-9.33497-3.11253-9.23236Z"/><path class="cls-1" d="m20.13295,264.77594c1.27722,7.34149,2.28558,15.76498-2.52151,21.45888-.3198-.87568-.30294-1.86962.04636-2.73396,2.9766-.65558,5.42805,2.24379,7.0947,4.7957,3.93217,6.02078,7.86434,12.04156,11.79651,18.06234.34542.52889.49873,1.5036-.13109,1.55212-1.59194-5.08401-3.00581-10.22377-4.23813-15.4067-1.18611-4.98858-2.17688-10.37532-.23753-15.12208.01083.39244.02165.78488.03248,1.17732-2.25476,1.27802-4.78243-1.09384-6.2897-3.20225-1.6784-2.3478-3.35679-4.6956-5.03519-7.0434-.99855-1.39681-1.92095-3.53647-.5169-3.53798Z"/><path class="cls-1" d="m227.90947,225.72689c-1.07082,6.27875-3.47894,12.3261-7.01735,17.62223-.71287,1.06699-2.20251,2.18584-3.0835,1.25283.41329-.78216,1.18604-1.36486,2.0517-1.54711,1.53334,6.9988,1.70222,14.29387.4944,21.35613-.85275-.41987-.58066-1.69244-.17093-2.55011,2.25732-4.72528,4.83682-9.29662,7.71463-13.67176,1.3911-2.11489,3.18959-4.38646,5.71436-4.56944-5.49089-4.2088-7.17182-12.64933-5.70331-17.89276Z"/><path class="cls-1" d="m117.26726,165.65587l-3.87532,9.52454c-.62976-.87216.655-2.07592,1.69445-1.79881s1.65645,1.31583,2.16402,2.26432c.76978,1.43847,1.53955,2.87694,2.30933,4.3154-.71366-2.4925-.80843-5.15971-.27346-7.69657.13076-.62006.33115-1.28189.8448-1.65302s1.41553-.21956,1.55542.39851c-1.22508.77653-2.96883.60749-4.02195-.38988s-1.31665-2.72937-.39728-4.96448Z"/><path class="cls-1" d="m185.31605,39.98812l-3.48633,8.84889c-.85809-1.01415.7777-2.59296,2.0153-2.11009s1.72779,1.98235,1.79371,3.30918-.12517,2.71483.38772,3.94029c.27854-3.2876,1.90892-6.44028,4.43076-8.56778.50908.07591-.04194.84457-.55609.86849-2.77009.12883-5.31853-2.57454-4.58507-6.28898Z"/><path class="cls-1" d="m239.53454,215.1951c-.95342,2.86105-2.13725,5.64528-3.53625,8.31687-.3368-1.20456.30116-2.60604,1.43075-3.14309,1.13485,2.81077,1.39943,5.96597.74852,8.92648,1.38776-3.76209,3.37287-7.30312,5.85823-10.44989.47085.98925-1.16736,1.86397-2.08095,1.25926s-1.1431-1.818-1.3549-2.89292-.61439-2.2923-1.0654-2.0167Z"/><path class="cls-1" d="m47.25721,292.65649l1.54047,13.09969c-1.02306-.13499-1.42184-1.62732-.7673-2.4251s1.91554-.86791,2.83539-.40022,1.55659,1.34691,2.06836,2.24299c.79009,1.38341,1.37006,2.88657,1.71392,4.44215-1.82835-3.8655-1.77382-8.57034.14363-12.39242-1.34685,1.0672-3.47613.36826-4.51541-1.00025s-1.27824-3.16422-3.01907-3.56684Z"/></svg>