<?xml version="1.0" encoding="UTF-8"?><svg id="Layer_1" xmlns="http://www.w3.org/2000/svg" viewBox="0 0 289.74837 262.7749"><defs><style>.cls-1{fill:none;stroke:#f9a049;stroke-miterlimit:10;}</style></defs><path class="cls-1" d="m107.99802,121.53024c.48614-31.43526.57936-62.8766.27963-94.31419,6.8466,2.79911,14.46111,2.84278,21.85779,2.84326,39.70966.00255,79.41929-.06521,119.1289-.13298-1.66794,1.72436-1.68042,4.41077-1.58869,6.80806,1.04461,27.29887,2.08921,54.59775,3.13381,81.89662-6.59427-.70127-13.17195.99111-19.68977,2.2135-40.04795,7.51078-81.37841-2.59367-121.98348.79428-11.70318,22.88431-25.08171,44.91162-39.99311,65.84738,23.00042.21035,45.42943-8.33083,68.42797-7.96877,9.2279.14527,18.36603,1.72528,27.45957,3.30094,17.38418,3.01219,34.76836,6.02439,52.15254,9.03658,2.59009-27.18857,28.66506-46.62506,35.42782-73.0862.18493-.7236-1.11385-1.44617-.79188-.77228"/><path class="cls-1" d="m115.47119,127.49241c-5.27121,16.47318-14.06151,31.81084-25.61047,44.68613,6.54227,2.7639,13.97221.72749,21.01226-.20964,15.83689-2.10813,31.7868,1.61948,47.69853,3.05764,13.36394,1.20788,26.81519.797,40.22728.38508,3.00759-.09237,6.01518-.18475,9.02277-.27712,5.45756-16.65229,13.98125-32.29431,25.016-45.90747-38.47115-.0804-76.94096-.80551-115.38781-2.17494-1.03233-.03677-2.47612-.89303-1.97855.44033Z"/><path class="cls-1" d="m113.81009,135.51043c25.94831,3.18119,51.99519,6.36796,78.13465,5.96376,11.03159-.17058,22.15123-.97537,33.03592.82703"/><path class="cls-1" d="m104.91869,147.42579c5.44177-1.55069,11.18481.28978,16.71521,1.4865,9.2438,2.00027,18.76862,2.19016,28.22214,2.47306,23.30611.69744,46.59388,2.00777,69.83113,3.92919"/><path class="cls-1" d="m143.05194,128.00989c-8.63057,13.22977-16.14477,27.18756-22.43655,41.67642"/><path class="cls-1" d="m163.8456,128.22947c-8.34583,13.51259-13.90124,28.56678-18.3419,43.8155-.0673.23108-.12809.50184.01566.69487s.55582.09335.49286-.13895"/><path class="cls-1" d="m191.36888,128.879c-9.46833,12.88981-16.40248,27.6337-20.29234,43.14709"/><path class="cls-1" d="m210.88061,130.03083c-2.22682,8.13629-6.90386,15.34341-10.54055,22.95475-2.87974,6.02708-5.12389,12.3576-6.68325,18.85275-.38631,1.60909-.71232,3.38616.05494,4.85235"/><path class="cls-1" d="m115.57727,119.6919c-1.55703-27.13837-.63141-54.41868,2.76154-81.3891.03931-.31248.09136-.6507.31811-.86927.24437-.23554.6167-.26144.95591-.27309,5.90134-.20263,11.80813-.14912,17.7127-.09558,34.21951.31027,68.43901.62054,102.65852.9308,1.454,27.13934,2.908,54.27868,4.36201,81.41801"/><path class="cls-1" d="m118.52431,49.65649c40.99029.16282,81.98059.32565,122.97088.48847"/><path class="cls-1" d="m139.21398,59.47671c-1.43558,8.82448-1.96742,17.79571-1.58451,26.728-1.64028-8.85927,1.31954-18.08275-.27859-26.94972,7.56141-.75298,15.2003-.72564,22.75612.08147-1.59772.27934-1.87142,2.4206-1.84461,4.04234.11178,6.76069-1.30077,13.54226-4.10253,19.69609-5.25501-1.99167-10.89605,1.6344-16.50921,1.90688-.66522.03229-1.56913-.72051-.98197-1.03484"/><path class="cls-1" d="m170.26795,61.08504c.00211,7.75443.00423,15.50885.00634,23.26328-.18151-8.21008-.36303-16.42015-.54454-24.63023-.01214-.54928.00253-1.16738.39854-1.54821.41562-.39969,1.07073-.367,1.64392-.30416,7.03933.77178,14.0113,2.15707,20.81097,4.135-1.74727,7.35741-2.9479,14.84458-3.5887,22.37943-2.42374-1.65965-5.65999-1.19811-8.54955-.66952-3.30327.60428-6.60654,1.20856-9.9098,1.81283-.21532.03939-.49351.04993-.59221-.14545s.34618-.33979.2936-.12731"/><path class="cls-1" d="m200.35077,59.70586c1.13142,6.79458,1.74275,13.67569,1.82687,20.56331-2.79272-6.50361-1.92872-13.92145-1.01444-20.94001,5.00702,1.13672,10.25076,1.21931,15.29109.24084,1.35552-.26315,3.17475-.3724,3.68776.90959.23635.59064.06147,1.25622-.10472,1.8703-1.92255,7.10364-2.39475,14.5965-1.37922,21.8853-4.82528-.41534-9.65056-.83069-14.47583-1.24603-1.42739-.12286-2.93742-.23131-4.22288.40126"/><path class="cls-1" d="m138.50937,98.32092l-.81144,20.60791c-.54853-7.0993-.50229-14.24446.13808-21.33606,3.55126-1.04029,7.1886-1.78656,10.86258-2.22867,1.36849-.16468,2.79722-.28065,4.08959.1986.8205.30427,1.55164.84531,2.08248,1.54102-.35252.4407-.40954,1.04092-.4524,1.60364-.46262,6.07419-.92523,12.14837-1.38785,18.22256-.11693,1.53524-.21674,3.16143.48647,4.53115.21114-.43465.42228-.8693.63342-1.30395"/><path class="cls-1" d="m166.05892,95.56737c.76587,7.80571,1.12529,15.65128,1.0763,23.49432-2.00875-8.17237,1.44439-17.02417-.92772-25.09857,2.56038,2.2342,6.09887,3.08243,9.4963,3.01429s6.71669-.96715,9.99539-1.86007c-.58145,9.05795-1.00547,18.126-1.27182,27.19869.32744-.33623.65488-.67246.98232-1.00869"/><path class="cls-1" d="m199.43136,95.56309c1.21238,7.85475,1.89159,15.79174,2.03141,23.73827-.29126-8.85132-.58253-17.70265-.87379-26.55397l.03556,1.93656c5.00445,1.64391,10.61459,1.36415,15.43067-.76947.87423-.3873,2.02747-.78481,2.67058-.07723.27275.30009.35599.7223.4191,1.12288,1.2891,8.18231-1.29881,16.56384-.32866,24.79007"/><path class="cls-1" d="m57.92686,234.40086c10.21156-14.13462,21.09307-27.78521,32.59577-40.8906-6.84317-10.99932-8.5705-25.04198-4.59696-37.37182.28034-.8699.90892-1.92241,1.79762-1.70904.36078.08662.63547.37604.85685.67379,2.72668,3.66729.45996,9.8849,3.99382,12.78243-.12736-8.46795,2.77867-16.9502,8.07203-23.561.59975-.74901,1.26545-1.50141,2.15804-1.85355s2.06866-.16735,2.5648.65397c.29381.48637.30077,1.08713.29917,1.65535-.01828,6.50591-.03657,13.01183-.05485,19.51774,3.13693-7.15709,6.82829-14.90048,13.91705-18.18893.50685-.23512,1.09881-.44445,1.60854-.21565.45155.20269.69694.68954.87182,1.15257,1.51129,4.00162.28197,8.5418-1.70045,12.33218s-4.69523,7.18491-6.42491,11.0971c3.23633-4.45207,7.15108-8.41002,11.56735-11.69502,1.76966-1.31635,4.51226-2.43156,5.92614-.7388,1.17335,1.40479.30799,3.52315-.65313,5.08085-3.75696,6.08897-8.52658,11.55148-14.05347,16.09503,3.03314-2.57785,6.29842-5.26313,10.24268-5.79982s8.58759,2.12922,8.58144,6.10981c-.00411,2.66077-1.98387,4.89178-4.06086,6.55486-4.09622,3.27991-9.06777,5.45616-14.25637,6.24057-3.69522.55865-8.11157.09531-10.14712-3.0389-5.85115,13.63717-14.65559,25.99832-25.63125,35.98547-4.46124,4.05945-9.34537,7.81019-12.66244,12.84793"/><path class="cls-1" d="m126.39713,254.90155c9.45187-21.07085,21.10272-41.1545,34.70212-59.8193-3.19372.34701-6.5184-1.33825-8.12654-4.11928-1.23216-2.13082-1.46235-4.68639-1.4826-7.14773-.03508-4.26329.64957-8.90103,3.71413-11.86504,2.97336,2.6164,5.36429,5.89108,6.95083,9.52003.99303-10.48679,5.05065-20.66507,11.5446-28.95889.78083-.99724,1.96099-2.075,3.14155-1.61623.87734.34094,1.2416,1.37606,1.39678,2.30444,1.23362,7.37994-4.08161,14.65198-2.99679,22.05525,2.517-8.40727,6.71489-16.30761,12.2736-23.09865,1.76365,1.3905,1.36138,4.12169.7892,6.29345-1.85508,7.041-3.71015,14.082-5.56523,21.12301,2.35157-7.24139,6.3808-13.93227,11.68132-19.39781.71655-.73886,1.96707-1.45668,2.64334-.68079.27711.31793.3123.77489.31605,1.19661.07101,7.99528-6.11648,14.60923-8.24526,22.31623,4.64026-7.3293,10.65327-13.78629,17.63402-18.93603,1.15222,1.26666.39166,3.27402-.42877,4.777-3.82865,7.01389-7.95461,13.86548-12.36307,20.53022,2.92898-2.15773,6.54684-3.36497,10.18464-3.3985.42849-.00395.89226.02012,1.22473.29046.3696.30054.47092.82077.48196,1.29701.09141,3.94225-3.96414,6.52486-7.49288,8.2849-2.00132.9982-4.04258,2.00949-6.25195,2.35642s-4.6542-.06976-6.26757-1.61854c-12.702,19.7758-26.27362,38.99302-40.66249,57.57751"/><path class="cls-1" d="m86.49877,200.58931c-.71472-1.86532-1.5525-3.87744-3.29769-4.84932s-4.56332-.01612-4.54054,1.9813c.01043.91485.58889,1.71278,1.14233,2.44131,1.39435,1.83544,2.78869,3.67087,4.18304,5.50631,1.4963,1.96964,3.30805,4.11584,5.77741,4.2595,3.11219.18105,5.34214-2.84135,6.9482-5.51325-.05242,5.1446-2.49393,9.94952-5.21297,14.31718-4.90039,7.87162-10.90362,15.05559-17.77948,21.27643-2.17964,1.972-4.50387,3.88194-7.25476,4.9174-2.75089,1.03546-6.02684,1.07266-8.46981-.56181-3.30604-2.21191-4.18128-6.88192-3.13731-10.72022s3.59095-7.05863,6.02428-10.20528c6.30694-8.15577,12.25089-16.59224,25.61729-22.84954Z"/><path class="cls-1" d="m152.99978,207.66328c-1.41474-1.63869-3.08117-3.05968-4.92281-4.19773-2.32825.57665-2.79066,3.71571-2.31774,6.06722.94289,4.68837,3.7111,8.9849,7.59055,11.78128,3.07577,2.21707,7.05044,3.49993,10.7112,2.51271s6.66132-4.70297,6.01685-8.43934c2.86762,7.10446,1.64254,15.70188-3.09533,21.7226-2.1363,2.71474-4.88042,4.88226-7.67095,6.91855-8.11594,5.92233-16.8693,10.97054-26.06001,15.02927-1.52118.67177-3.19823,1.3291-4.80497.90053-1.70901-.45585-2.90734-2.08469-3.33715-3.80044s-.22306-3.52075.03386-5.27075c2.36334-16.09764,8.84171-31.57404,27.85648-43.22389Z"/><path class="cls-1" d="m126.97674,254.21404l-1.50096-1.19488c-.07332,2.64517.55833,5.30667,1.81243,7.6368.0126-3.18761-.41147-6.37665-1.25666-9.4502.39255,2.34255,1.04331,4.64173,1.93672,6.84252-1.03047-4.05401-1.23807-8.31535-.60654-12.45032.6698,4.31999,1.33961,8.63997,2.00941,12.95996-.99883-5.28342-1.08474-10.73818-.2528-16.05043,2.38609,4.36309,3.4989,9.41289,3.16773,14.37477-1.18498-5.76068-1.71718-11.65539-1.58315-17.53516,1.54686,5.11691,2.60098,10.38264,3.14304,15.7007-.68378-6.7445-1.36755-13.489-2.05133-20.23349,2.56113,6.45991,5.12226,12.91981,7.68338,19.37972-1.32017-8.33015-2.64035-16.6603-3.96052-24.99045,2.14967,7.22585,4.29934,14.4517,6.44902,21.67754-3.07278-8.73983-4.78469-17.95663-5.05524-27.21694,2.84667,8.35523,5.69333,16.71046,8.54,25.06569-1.78859-8.91836-3.57718-17.83672-5.36578-26.75508,3.211,7.43625,5.90469,15.09582,8.05518,22.90504-3.68092-7.97124-5.6143-16.74392-5.62513-25.52399,2.56238,7.93878,5.12477,15.87757,7.68715,23.81635-2.12888-7.70108-3.48063-15.61676-4.02805-23.5879,3.22811,6.69907,5.79261,13.71771,7.64382,20.91988-1.63628-6.17704-2.63356-12.52315-2.9708-18.90434,2.21113,5.67272,4.42227,11.34544,6.6334,17.01816-.47509-4.52658-.95019-9.05317-1.42528-13.57975,2.58111,4.95447,4.72499,10.13662,6.39858,15.46653-.16977-4.79854-.33953-9.59707-.5093-14.39561,1.94916,3.37121,3.29106,7.09233,3.94215,10.93165.41877-3.99816.60315-8.02085.5519-12.04055,1.79419,3.27447,3.1157,6.80746,3.91093,10.45559-.15096-3.04966.11294-6.11959.78216-9.09874,1.03833.46724,1.7198,1.62783,1.62191,2.76224"/><path class="cls-1" d="m58.23802,233.74129c-.31303,4.21002.69427,8.5087,2.84506,12.14138l-2.44289-17.02268c1.67228,4.35923,3.34455,8.71847,5.01683,13.0777.88772-.09723.913-1.37835.67776-2.23985-1.07714-3.94478-2.15429-7.88955-3.23143-11.83433,1.52584,4.3604,3.05169,8.72079,4.57753,13.08119-.80499-5.24519-1.60999-10.49038-2.41498-15.73557,1.86072,4.98735,4.05807,9.84907,6.57215,14.54112-1.84024-6.63653-3.08876-13.43702-3.7259-20.29443l5.74633,14.65202c-1.3999-5.96905-2.80941-12.04679-2.39106-18.16351,1.83415,5.50558,3.66831,11.01115,5.50246,16.51673-.71138-7.0906-1.42276-14.1812-2.13415-21.2718,1.92843,5.43185,3.85685,10.86369,5.78528,16.29554-.68748-4.87781-1.37495-9.75561-2.06243-14.63342-.2402-1.70426-.4598-3.53909.33915-5.06352,1.54837,5.94776,3.48798,11.79364,5.80213,17.48732-.68755-6.03106-1.37511-12.06211-2.06266-18.09317,1.63272,4.20708,3.26544,8.41417,4.89815,12.62125l-.51285-13.23904c.94001,2.70445,1.88001,5.40891,2.82002,8.11336.62684-1.14255,1.25368-2.2851,1.88053-3.42765.48818,1.07392.97635,2.14784,1.46453,3.22176.42387-1.92018.50098-3.91636.22651-5.86352l1.44017,3.46064.75694-2.0688"/><path class="cls-1" d="m141.35689,62.02315l-3.08757,5.3581c1.79911-2.75061,3.75696-5.39739,5.86056-7.92276-1.58636,3.65309-3.07758,7.34749-4.47165,11.0782l6.27687-10.5526c-2.97137,6.14612-5.70274,12.40826-8.18581,18.76737,2.25547-4.12962,4.51126-8.25982,6.87551-12.32815.91041-1.5666,1.98051-3.24318,3.70389-3.80268-2.89204,5.89816-5.78409,11.79632-8.67613,17.69448,4.65912-5.11052,6.99085-12.0737,11.94266-16.90117-3.13307,5.60141-6.27839,11.22896-8.53919,17.23568,1.16158-.45014,1.89287-1.57933,2.54521-2.64063,2.84245-4.62442,5.68491-9.24885,8.52736-13.87327-2.03236,5.51307-4.06472,11.02615-6.09707,16.53922,2.56415-4.62355,5.1283-9.24709,7.69245-13.87064.89452.82627.53633,2.29009.09909,3.42663-1.49214,3.87853-3.12723,7.70206-4.90083,11.46022,1.30662-2.29671,2.73175-4.52599,4.26783-6.67602-.23816,2.26493-.47633,4.52986-.71449,6.79478-.08292.78856.10511,1.89923.89793,1.88754"/><path class="cls-1" d="m175.34684,61.25731c-1.50978,2.83348-2.9135,5.72347-4.20725,8.66188,2.14123-3.12359,4.54044-6.07027,7.16517-8.80018-1.87764,5.57043-4.08613,11.02933-6.60994,16.33835,3.10003-5.03226,6.20006-10.06451,9.30009-15.09677-2.30175,5.84706-4.6035,11.69411-6.90524,17.54117-.29184.74135-.5409,1.699.04333,2.2407,3.27711-5.51228,6.55422-11.02455,9.83133-16.53683.3384-.56921.73799-1.18656,1.37762-1.35801-.18248,1.33453-.74801,2.58199-1.30701,3.80746-2.10399,4.61251-4.20799,9.22503-6.31198,13.83754,3.35506-5.36619,6.71011-10.73238,10.06517-16.09857.48445.16863.4013.87348.223,1.35445-1.58325,4.27099-3.1665,8.54197-4.74976,12.81296,2.13958-3.69389,4.27916-7.38778,6.41874-11.08167-1.63143,4.49738-3.27804,9.06292-3.64885,13.83267.65633.01391,1.30432-.37926,1.5951-.96782"/><path class="cls-1" d="m205.07703,63.11713l-2.4595,9.31356c1.55524-2.92225,3.11049-5.8445,4.66573-8.76676.17549-.32975.58751-.7045.84847-.43724-1.03842,4.75006-1.98652,9.51986-2.84363,14.30596.43815.1575.78601-.38142.94175-.8202,1.48662-4.18858,2.97325-8.37716,4.45987-12.56573-1.28144,5.3205-2.56288,10.64099-3.84432,15.96149l6.15274-14.12527c.23412-.53749.55082-1.14426,1.12658-1.25475-.85721,5.62666-2.32841,11.15956-4.37909,16.46887,1.58227-1.71926,2.41793-3.97759,3.21641-6.17347,1.12395-3.09093,2.2479-6.18186,3.37184-9.2728-1.08573,4.89259-2.17145,9.78519-3.25718,14.67778,2.0407-2.31045,2.82686-5.43774,3.54729-8.43501-.52169,2.84457-.70483,5.75108-.54431,8.63863.01305.23481.03829.49226.20609.65702s.5244.12788.56385-.10396"/><path class="cls-1" d="m140.08711,100.79135c-.89266,4.322-1.53903,8.69487-1.93492,13.0903,1.28682-4.4217,2.57365-8.84339,3.86047-13.26509.22316-.76682.49373-1.5994,1.16587-2.03072-.66095,6.71029-1.3219,13.42058-1.98285,20.13087,1.56871-7.01027,2.91015-14.07139,4.0215-21.16855.60181.8149.57044,1.91878.51315,2.93019-.28976,5.11554-.57953,10.23107-.86929,15.34661-.03306.58364.02276,1.31697.56506,1.53523.97572-5.8108,2.09072-11.59821,3.34372-17.35558l1.13518-.31536c-.38107,6.45913-.76215,12.91825-1.14322,19.37738-.0339.57453.0101,1.28791.53281,1.52877.53765-6.40979,1.32082-12.79897,2.34721-19.14885,1.83159,6.32568.15508,13.11082.75449,19.669l.54584-1.38705"/><path class="cls-1" d="m169.19221,99.62369c-1.45478,1.07892-1.47874,3.20976-1.34683,5.01615.43063,5.89693,1.02921,11.7816,1.79477,17.64446-.73512-6.00838-.72999-12.10697.01524-18.11411.0893-.7198.34705-1.60814,1.06482-1.71254.03469,5.29625.29051,10.59105.76656,15.86598.39583-6.78978.40384-13.59552.41173-20.39683l.87779,9.68183c.40138,4.42713.80371,8.86131,1.59893,13.2349.95106-1.02245.80565-2.61134.64775-3.99877-.58525-5.14238-.50306-10.36033.24385-15.48173.06432-.44103.2433-.98941.68784-1.02151.44224,5.92935.88449,11.85871,1.32673,17.78806.43176-5.80582.86353-11.61164,1.29529-17.41746.03995-.53725.33633-1.26613.85092-1.10667.41589,6.94683.83177,13.89365,1.24766,20.84048.03789-5.41514.07577-10.83027.11366-16.24541.00936-1.33813.10722-2.86738,1.15813-3.6958,1.15275,1.75999,1.13491,4.01158,1.0773,6.11469-.12729,4.64671-.25458,9.29343-.38186,13.94014"/><path class="cls-1" d="m203.14024,99.41083c-.51364,2.96349-1.02727,5.92697-1.54091,8.89046,1.0035-3.69941,2.43612-7.28223,4.25994-10.65364-1.05779,5.61713-2.11782,11.2518-2.47035,16.95678,2.11654-5.52159,4.23308-11.04317,6.34961-16.56476-1.17977,5.58395-2.35954,11.1679-3.53931,16.75184-.18938.89635-.27038,2.05304.528,2.50238,2.07021-5.26493,3.9036-10.62298,5.49277-16.05251l.90478-.07938c-.93822,6.50872-1.87644,13.01743-2.81465,19.52615,1.97318-7.02857,3.94637-14.05713,5.91955-21.0857l-1.94355,17.11101c1.24123-4.01211,2.48245-8.02422,3.72368-12.03633.16253-.52537.36615-1.10241.85138-1.36122-.67244,5.8347-1.11264,11.69617-1.31919,17.56586.36232-.3445.62612-.79148.7526-1.27517"/></svg>