<?xml version="1.0" encoding="UTF-8"?><svg id="Layer_1" xmlns="http://www.w3.org/2000/svg" viewBox="0 0 293.58607 346.35037"><path d="m23.83479,161.01138c17.87099,4.28179,36.1288,6.94771,54.47797,7.95459,1.09085-.86145-.32251-2.9978-1.54199-2.33078s-.18305,3.00953,1.13076,2.55571c.82098-.28359,1.18533-1.21818,1.44955-2.0456.30225-.9465.60489-1.89407.97793-2.81497,3.0275-7.47365,11.04002-12.6191,19.09572-12.26282,1.20925,7.24706-2.45844,15.06105-8.80599,18.76114,5.98911-5.53812,14.2161-8.58276,22.36762-8.27778,2.35585.08814,5.21812.89086,5.71701,3.19496.29674,1.37048-.40749,2.74551-1.16238,3.9272-3.48307,5.45232-8.61009,9.83928-14.53543,12.43732,5.33369-1.9587,11.36891-1.93877,16.68954.05512,1.8039.676,3.5784,1.61224,4.78524,3.11377,4.07518,5.07031-1.28118,13.17879-7.7162,14.13046s-12.5837-2.6054-18.11742-6.02491c4.03484,2.12536,8.33466,4.51962,10.27369,8.64724s-.14478,10.31458-4.69414,10.63149c-2.68848.18728-5.06735-1.65018-6.99903-3.52943-4.25425-4.13876-7.80173-9.00217-10.44333-14.31725,3.61598,4.87038,7.23195,9.74076,10.84793,14.61113,2.42114,3.26105,4.80053,8.03548,1.99841,10.97562-2.50839,2.63195-7.0085,1.18641-9.84559-1.08736-5.5541-4.4513-8.90042-11.53364-8.81228-18.65083-9.75185-.3694-19.5969-.75217-29.03365-3.23868s-18.56438-7.28846-24.50007-15.03459c-.58837,5.97878-2.70151,11.80128-6.08474,16.76572,11.15669,8.28471,22.68578,16.33942,35.62713,21.40201s27.56687,6.93877,40.78336,2.64544c-1.2599-1.03399-3.08573-1.32809-4.6066-.74203,1.12245,1.01029,2.95845,1.11146,4.18511.23061-3.18836-4.70721-2.45748-11.6689,1.63896-15.61132,2.06594,6.11138,2.8461,12.65408,2.2751,19.07989.77545-5.66414,4.69419-10.79406,9.95501-13.03184,2.11823-.90102,4.92218-1.20277,6.41858.54638.85177.99564,1.02774,2.39687,1.02515,3.70714-.01417,7.17967-4.69402,14.13242-11.34032,16.84806,6.80607-.87481,13.96951,2.84807,17.16494,8.92072,1.43475,2.72661,2.01792,6.29428.15075,8.74512-1.58996,2.08698-4.46701,2.7238-7.09035,2.68491-8.17013-.12112-15.953-5.88225-18.45482-13.66084,4.65089,4.05357,7.81123,9.78077,8.76094,15.87669.30396,1.95103.35861,4.06747-.64387,5.76863-2.67639,4.54172-9.91778,2.41793-13.50138-1.44835-3.20259-3.45522-5.36459-7.86279-6.13652-12.51029,4.83305,4.66212,7.18319,11.76306,6.08573,18.38795-.50588,3.05379-2.289,6.45817-5.37265,6.72766-2.26299.19777-4.26309-1.40208-5.83991-3.03728-7.62204-7.90422-11.71881-19.08983-11.00487-30.04713-6.32452,4.2882-15.02977,2.86254-21.80867-.66377s-12.46045-8.8645-19.11499-12.6202c-4.60547-2.59924-9.674-4.44015-13.85771-7.67481s-7.45005-8.42678-6.43154-13.61611c.12692-.64662.27692-1.42967-.21276-1.87062s-1.42781.51116-.81695.75829" style="fill:none; stroke:#f9a049; stroke-miterlimit:10;"/><path d="m66.89383,167.1916c1.33769-5.08871,2.20773-10.30026,2.5956-15.54754-.64475-1.18739-2.52576-1.09502-3.49808-.15683s-1.27217,2.35549-1.51982,3.68375c-2.37609,12.74384-4.26621,25.57828-5.66489,38.46606-.5077,4.67804-.43569,10.43812,3.63881,12.79189.46539.26884,1.04007.47757,1.52918.25479.43319-.19731.66057-.6696.83917-1.11083,1.35769-3.35408,1.89022-7.0387,1.53779-10.63994-1.33997.82689-.13878,2.80292.25925,4.32635.53049,2.03043-.8257,4.17461-2.6377,5.23326s-3.97689,1.2802-6.06708,1.46773c-9.54132.85605-19.71804,1.36581-28.10795-3.25794-6.33008-3.48855-10.82743-9.47618-15.12627-15.28651-3.57745-4.83529-7.18508-9.722-9.60588-15.22817-2.42081-5.50617-3.58736-11.76437-2.07552-17.5861,6.45578,2.94805,13.45358,4.70414,20.53638,5.15358,14.4752.91853,28.6885-3.55366,43.36701,7.43643Z" style="fill:none; stroke:#f9a049; stroke-miterlimit:10;"/><path d="m66.93749,224.47819l3.29948-7.96876c.30035-.7254.60673-1.5051.45083-2.27459-.41642-2.0554-3.48674-2.09465-5.23146-.93103-3.56925,2.38047-4.74735,6.99429-5.65099,11.18829-1.70396,7.90845-3.40793,15.8169-5.11189,23.72535-.43176,2.00388-.86462,4.07714-.45718,6.0861s1.88798,3.95063,3.91954,4.22399c1.08324-2.95887,1.91116-6.38388.40058-9.14909-2.07223-3.79334-7.16722-4.27401-11.38704-5.21033-11.19575-2.48419-20.03983-10.97392-27.26978-19.87583-6.81243-8.38783-12.8869-17.74408-15.16862-28.30621-.4969-2.30018-.196-5.54277,2.13149-5.88995,1.50861-.22504,2.78071,1.04016,3.81227,2.16375,7.78823,8.48309,17.65952,15.03968,28.49886,18.92916,8.57655,3.07753,19.2252,4.08301,27.76392,13.28916Z" style="fill:none; stroke:#f9a049; stroke-miterlimit:10;"/><path d="m105.9405,118.48934c4.75725,47.29437,5.52933,94.98896,2.30538,142.41253,40.62101-6.66672,82.244-7.1941,123.02087-1.55871-1.83884-5.04661-2.33588-10.46704-2.80843-15.81739-4.421-50.05602-8.04122-100.18277-10.85881-150.3546-2.95049,3.0537-7.5014,3.77275-11.71133,4.32679-33.74194,4.44055-67.48388,8.8811-101.22582,13.32165,1.59208,7.82161,2.39334,15.80397,1.27814,7.66972Z" style="fill:none; stroke:#f9a049; stroke-miterlimit:10;"/><path d="m160.58836,103.28382c1.47923,50.09152,2.95845,100.18304,4.43768,150.27455" style="fill:none; stroke:#f9a049; stroke-miterlimit:10;"/><path d="m109.88005,175.83683c6.7907,1.93606,14.023,1.11107,21.03411.27062,28.40183-3.40465,56.80365-6.80929,85.20548-10.21394,1.88513-.22598,4.43651-.00287,4.80053,1.86053" style="fill:none; stroke:#f9a049; stroke-miterlimit:10;"/><path d="m143.19163,143.73707c-1.90504,1.54245.16588,4.99559,2.61681,4.96034s4.35539-2.118,5.6558-4.19579c2.20266-3.5194,3.61006-7.4779,4.72849-11.47627,3.05869-10.93472,4.06392-22.44014,2.94784-33.73961-.17256,3.94826-1.55175,7.83568-3.90611,11.00987-8.76758-6.73006-14.26378-17.53805-14.5376-28.58745-.04088-1.64965.0767-3.437,1.13133-4.70617,1.81666-2.18621,5.38048-1.66312,7.80916-.18621,4.42581,2.69137,7.06831,7.66842,8.09974,12.74457s.65188,10.31967.26791,15.4853c7.78491-8.62734,12.81082-19.70727,14.17403-31.24753.24777-2.0975-.29968-5.01155-2.4116-5.038-1.06454-.01334-1.93609.81411-2.62095,1.62921-7.25,8.62874-7.37177,20.9914-6.52747,30.32392,1.03999,6.4356,2.21592,12.99279,5.36208,18.70244s8.6528,10.51614,15.144,11.11843" style="fill:none; stroke:#f9a049; stroke-miterlimit:10;"/><path d="m162.83399,103.41118c14.07365-17.12693,23.81812-37.78309,28.08585-59.53593-.39959,3.30315,1.23091,6.57728,3.50086,9.00993s5.14495,4.19629,7.88167,6.08859c7.52453,5.20282,15.01067,11.86631,24.15697,12.04814,1.15068.02287,2.32904-.05794,3.42693.28736s2.12208,1.25638,2.16681,2.40642c.04281,1.1007-.78154,2.02163-1.55805,2.80291-10.29913,10.36225-21.76569,19.56331-34.11296,27.37311-6.00119,3.79583-12.71401,7.88614-14.7338,14.69372-2.21653-.20726-3.96623-1.89888-5.51779-3.49533-4.02844-4.145-8.3202-8.47734-13.89411-10.00733-.47337-.12994-.98452-.2571-1.30741-.62685s-.29826-1.07194,1.90502-1.04474Z" style="fill:none; stroke:#f9a049; stroke-miterlimit:10;"/><path d="m278.5766,153.35559c-15.30933,15.75037-32.66029,29.51403-51.48123,40.83753.78373-5.64178-2.44316-11.6119-7.59243-14.04686-5.14927-2.43496-11.81116-1.14099-15.6745,3.04452-3.07682,3.3334-4.26492,7.94227-5.34683,12.3477-.43067,1.75366-.80086,3.8049.34338,5.20187,1.39695,1.70549,4.16553,1.29896,6.05316.1601s3.47167-2.84992,5.57929-3.4965c-4.65331,2.29814-8.70517,5.8012-11.65168,10.07353-.74213,1.07606-1.44108,2.30154-1.32808,3.6038.19115,2.20285,2.61599,3.55462,4.82076,3.72213,6.70059.50907,11.76758-5.82444,14.96644-11.73412-1.00435,7.23835-1.31911,14.57222-.93861,21.87,6.53025-2.56776,11.12673-9.41486,11.03028-16.43115-.60509,3.41359-.81417,6.8972-.62172,10.35866.05664,1.01875.16595,2.088.74697,2.92673,1.85111,2.67214,6.02249.7905,8.49992-1.31409,2.34373-1.99102,4.72603-4.15463,5.81057-7.03231s.40753-6.65751-2.2847-8.14383c1.41627,4.05899,5.03192,7.27338,9.22883,8.20462.8328.18479,1.76341.26944,2.48584-.18421.9172-.57596,1.16157-1.78059,1.32238-2.85163.39973-2.66231.79544-5.41359.10711-8.01625s-2.75694-5.03861-5.43831-5.2792c-1.45102-.13019-3.75939-1.01736-2.7342-2.05244,16.94558-9.09878,32.25041-21.24246,44.96303-35.67608-1.04232.42389-2.08465.84778-10.86567-6.09253Z" style="fill:none; stroke:#f9a049; stroke-miterlimit:10;"/><path d="m285.3079,145.80775c-5.34418,4.9642-10.77688,9.99138-17.26212,13.3298-3.02135,1.55531-6.22576,2.71895-9.42008,3.87823-5.33393,1.93578-10.66786,3.87156-16.0018,5.80734-2.86538,1.0399-5.77163,2.08907-8.80867,2.35014-3.34333.2874-7.333-.14053-9.41366,2.49221,1.01962-.19742,2.03924-.39484,3.05886-.59227-1.00433.12512-2.00867.25023-3.013.37535-.23373-.54247-.25882-1.1718-.06902-1.73116" style="fill:none; stroke:#f9a049; stroke-miterlimit:10;"/><path d="m222.05924,158.11294c11.8849-7.48735,26.45031-9.01515,39.71912-13.62491,9.4248-3.2743,18.24833-8.13954,26.41616-13.86968-.81011-.03597-1.85742.09237-2.05721.87828s1.57912.7273,1.05166.11137" style="fill:none; stroke:#f9a049; stroke-miterlimit:10;"/><path d="m237.76081,152.03635c2.37827-3.96608,4.24756-8.237,5.5476-12.675.46838-1.59893.42451-3.95305-1.22021-4.21922-.61897-.10017-1.23147.18772-1.76948.50975-6.17113,3.69383-7.68263,11.85168-8.20141,19.02511-.44958,6.2167-.58754,12.65173,1.65148,18.46862.64397,1.67301,2.01293,3.55148,3.76402,3.16766,1.9479-4.41563,3.8958-8.83127,5.8437-13.2469-1.12032,2.38836,1.39381,5.19411,4.02399,5.39795s5.06372-1.2797,7.26507-2.73347c10.60999-7.00686,20.78926-14.66583,30.46125-22.91933,2.81233-2.39987,5.86542-5.84764,4.57687-9.31292.05759.60579-.69776,1.11752-1.239.83938" style="fill:none; stroke:#f9a049; stroke-miterlimit:10;"/><path d="m238.87923,137.28663c17.25182.90757,34.69207-1.95307,50.74999-8.32426.58388-.23166,1.24275-.55461,1.37692-1.16828s-.83904-1.208-1.11489-.64365" style="fill:none; stroke:#f9a049; stroke-miterlimit:10;"/><path d="m243.42344,186.48678c-1.54802-4.21507-4.03427-8.08264-7.22619-11.24094-2.04392-.36541-3.88344,1.66469-4.11636,3.72792s.65879,4.06883,1.52941,5.95382c3.17376,6.87154,6.34751,13.74308,9.52126,20.61462,1.27033,2.75042,3.21852,5.94316,6.2459,5.82699,3.28131-.88286,4.77678-4.99154,3.99403-8.29817s-3.17432-5.95843-5.48034-8.45417c.47223-.29139.94447-.58279,1.4167-.87418,1.01439-.62593,2.02878-1.25187,3.04317-1.8778,4.03346-2.48886,8.09474-4.99861,11.58029-8.21019,3.99133-3.6776,7.12041-8.17545,10.2154-12.63375,2.61027-3.76006,5.22054-7.52012,7.83081-11.28018-.60115-.35159-1.2023-.70319-1.80345-1.05478" style="fill:none; stroke:#f9a049; stroke-miterlimit:10;"/><path d="m238.49035,180.05917c16.45909-9.84231,33.74434-20.5447,42.46375-37.62523-.6551.22765-1.3102.4553-1.9653.68296" style="fill:none; stroke:#f9a049; stroke-miterlimit:10;"/><path d="m248.19555,195.055c8.87726-4.56933,17.54996-9.53604,25.98344-14.88029,2.35654-1.49332,4.71799-3.0354,6.64459-5.0532,2.39997-2.51359,4.02054-5.65305,5.5867-8.75549,2.54502-5.04148,5.03442-10.11104,7.46758-15.20746.46118-.96597.93188-1.99431.82674-3.05956s-1.03036-2.12618-2.08865-1.96552c.68248-.33575,1.6053.38635,1.44351,1.12955" style="fill:none; stroke:#f9a049; stroke-miterlimit:10;"/><path d="m4.91279,160.46007c-.03868,3.5422.37699,7.08912,1.23361,10.5264.19597-3.54426-.12866-7.11688-.96025-10.56777-.65096,5.11225.29827,10.41666,2.68174,14.98589-.50806-5.27606-1.01611-10.55212-1.52417-15.82818,1.48518,8.1342,3.02714,16.43164,7.02259,23.67092-1.51858-7.34973-2.61245-14.7872-3.27432-22.26293,1.77831,9.34545,4.15423,18.57714,7.10841,27.61995.21548.6596,1.04639,1.42714,1.41467.83903-2.70051-8.48908-4.92428-17.21936-5.21749-26.12281,1.39438,10.36892,4.39426,20.52038,8.85996,29.98169-.13507-4.35863-1.90025-8.47433-3.03073-12.68597-1.52111-5.66694-1.89984-11.63799-1.10692-17.4517,2.62107,8.86319,5.33601,17.69861,8.14421,26.50429.81536,2.55671,1.68998,5.20061,3.5212,7.1623-4.38611-10.42373-6.86032-21.64844-7.26307-32.9502,2.56604,13.1496,5.23647,26.58268,11.99751,38.14922-2.29907-7.36145-4.59947-14.72763-6.47912-22.20717-1.12301-4.46869-2.09636-9.15792-1.05751-13.64692,3.66827,13.88625,7.35673,27.83174,13.02795,41.02725-4.42385-13.29504-8.89839-26.90198-8.6874-40.91212,3.64825,13.84449,7.78749,27.55959,12.40731,41.11086-2.28308-8.45078-4.43971-16.93621-6.41653-25.46384-1.31506-5.67291-2.50052-11.86929.01569-17.12094,2.70106,12.19311,5.83217,24.29095,9.38554,36.26348.9178,3.09238,1.87812,6.20961,3.51605,8.98852-3.55151-10.08533-6.27779-20.46112-8.14263-30.98962-.96419-5.44361-1.68472-11.13562-.08025-16.42601,3.49749,14.32518,6.99498,28.65036,10.49248,42.97554-2.52541-12.78561-5.05977-25.89087-3.03744-38.76564,2.44311,13.03755,4.6071,26.1274,6.49,39.25757-1.97694-10.44091-2.93079-21.07528-2.84344-31.70134.01194-1.45301.08314-3.02233.98873-4.15868,1.43345,10.86525,2.32628,21.8018,2.67409,32.75568-1.60359-7.26381-1.48848-14.78234-1.36569-22.22004.05852-3.54482.14736-7.22192,1.70557-10.40644.20953,9.12708.06392,18.26231-.43637,27.37808-.41551-9.78616.21902-19.61656,1.88919-29.2681.59458,7.87348.75198,15.77996.47123,23.67087-.74698-2.09767-1.11655-4.3291-1.08573-6.55559" style="fill:none; stroke:#f9a049; stroke-miterlimit:10;"/><path d="m6.86492,191.16015c-.03865,4.26525.37673,8.53616,1.23274,12.67507.19583-4.26772-.12857-8.56959-.95958-12.72488-.6505,6.15577.29806,12.54293,2.67987,18.04484-.5077-6.35302-1.0154-12.70604-1.5231-19.05906,1.48414,9.79456,3.02502,19.78569,7.01768,28.50267-1.51752-8.84997-2.61062-17.80559-3.27203-26.80728,1.77707,11.25306,4.15132,22.36914,7.10345,33.25779.21533.79423,1.04566,1.71845,1.41368,1.0103-2.69863-10.22189-4.92083-20.73421-5.21384-31.45504,1.3934,12.48545,4.39119,24.70904,8.85377,36.10161-.13498-5.24832-1.89892-10.20413-3.02861-15.27546-1.52004-6.82368-1.89851-14.01356-1.10614-21.01398,2.61923,10.67236,5.33228,21.31128,8.13852,31.9144.81479,3.07859,1.6888,6.26217,3.51874,8.62428-4.38304-12.55144-6.85553-26.06736-7.25799-39.67606,2.56425,15.83372,5.23281,32.00878,11.98912,45.93631-2.29746-8.86408-4.59626-17.73386-6.47459-26.74014-1.12222-5.38084-2.0949-11.02726-1.05677-16.43256,3.6657,16.72074,7.35159,33.51281,13.01885,49.40181-4.42076-16.00885-8.89217-32.39326-8.68133-49.26317,3.6457,16.67045,7.78204,33.18511,12.39863,49.50248-2.28148-10.17577-4.43661-20.39326-6.41205-30.66156-1.31414-6.83087-2.49878-14.29207.01568-20.6157,2.69917,14.68199,5.82809,29.24927,9.37898,43.66564.91716,3.7236,1.87681,7.47712,3.51359,10.82327-3.54903-12.14396-6.2734-24.63768-8.13694-37.31528-.96352-6.55477-1.68355-13.40864-.0802-19.77892,3.49505,17.24926,6.99009,34.49852,10.48514,51.74778-2.52365-15.39543-5.05623-31.17577-3.03532-46.67856,2.4414,15.6988,4.60388,31.46058,6.48546,47.2709-1.97556-12.57213-2.92874-25.3772-2.84146-38.17228.01193-1.7496.08308-3.63925.98804-5.00755,1.43245,13.08308,2.32465,26.25203,2.67222,39.44183-1.60247-8.74651-1.48744-17.79974-1.36474-26.75564.05848-4.2684.14726-8.69607,1.70438-12.53062.20938,10.99012.06388,21.99005-.43607,32.96654-.41521-11.78373.21887-23.62073,1.88786-35.24236.59416,9.48064.75145,19.001.4709,28.50262-.74646-2.52585-1.11577-5.21277-1.08497-7.89373" style="fill:none; stroke:#f9a049; stroke-miterlimit:10;"/></svg>