<?xml version="1.0" encoding="UTF-8"?><svg id="Layer_1" xmlns="http://www.w3.org/2000/svg" viewBox="0 0 820.46397 221.46462"><defs><style>.cls-1{fill:#010202;stroke-width:0px;}</style></defs><g id="Calque_1"><path class="cls-1" d="m314.78284,65.19596h-17.9182v39.18174c-5.39227-6.18659-12.8009-9.83745-21.55377-9.83745-17.9182,0-31.78837,14.67978-31.78837,36.21828s13.87019,36.21828,31.78837,36.21828c8.89035,0,16.55868-3.77305,21.95095-10.23461l1.8789,8.75289h18.71252l-3.10094-14.40483v-85.8943h.03054Zm-35.8211,83.09889c-10.37209,0-18.0404-6.87399-18.0404-17.50575,0-10.76925,7.6836-17.50575,18.0404-17.50575,10.50955,0,18.0404,6.73651,18.0404,17.50575,0,10.63177-7.5461,17.50575-18.0404,17.50575m129.13933-83.09889h17.9182v100.32968h-17.9182v-100.32968Zm-46.72787,29.35957c-20.19424,0-35.01151,14.5423-35.01151,36.21828,0,22.08841,14.6798,36.21828,37.44034,36.21828,9.95964,0,19.7971-2.68849,28.01531-7.94328l-6.87399-15.35191c-6.46156,3.36062-13.59522,5.39227-20.88164,5.39227-9.42499,0-16.02402-3.63558-18.84999-10.37209h50.36342c.53464-2.55101.80961-5.1173.80961-8.21824,0-21.52321-14.93948-35.94331-35.01154-35.94331m-17.23077,29.8942c2.01636-7.94328,8.08074-12.25097,17.23081-12.25097,9.28753,0,15.35191,4.30769,17.23081,12.25097h-34.46161Zm361.5718-29.8942c-20.33175,0-35.42394,14.67978-35.42394,36.21828s15.07698,36.21828,35.42394,36.21828c20.33175,0,35.42394-14.67978,35.42394-36.21828s-15.07698-36.21828-35.42394-36.21828m0,53.73932c-10.37207,0-18.04042-6.87399-18.04042-17.50575,0-10.76925,7.66835-17.50575,18.04042-17.50575,10.50953,0,18.04042,6.73651,18.04042,17.50575.01522,10.63177-7.53088,17.50575-18.04042,17.50575m-33.92697-50.36343l-8.47792,18.98749c-3.1009-2.15385-6.46152-3.10094-10.09714-3.10094-5.92688,0-10.50953,2.82597-12.92311,7.40863v44.29904h-17.90295v-55.89317l-2.96344-13.59522h18.45281l1.87886,8.75289c4.30773-6.73651,11.04418-10.37209,19.12499-10.37209,4.41469.01527,8.99735,1.08456,12.9079,3.51337m113.25276-3.37589c-20.33175,0-35.42394,14.67978-35.42394,36.21828s15.07698,36.21828,35.42394,36.21828c20.33175,0,35.42394-14.67978,35.42394-36.21828s-15.09219-36.21828-35.42394-36.21828m0,53.73932c-10.37207,0-18.04042-6.87399-18.04042-17.50575,0-10.76925,7.66835-17.50575,18.04042-17.50575,10.50953,0,18.04042,6.73651,18.04042,17.50575,0,10.63177-7.53081,17.50575-18.04042,17.50575m-268.80349-52.2576h19.52213l-18.71252,69.48839h-28.82492l-18.71252-69.48839h19.26246l13.73269,56.29033,13.73269-56.29033Zm-53.999-20.86637c0,6.46156-4.84234,11.31916-11.18168,11.31916-6.46156,0-11.31918-4.84234-11.31918-11.31916,0-6.46155,4.84234-11.30389,11.31918-11.30389,6.33934-.01527,11.18168,4.84234,11.18168,11.30389m113.39027,19.38465c-20.19424,0-35.01151,14.5423-35.01151,36.21828,0,22.08841,14.6798,36.21828,37.44034,36.21828,9.95964,0,19.7971-2.68849,28.01534-7.94328l-6.87399-15.35191c-6.46156,3.36062-13.59522,5.39227-20.86639,5.39227-9.42499,0-16.02402-3.63558-18.84999-10.37209h50.36338c.53464-2.55101.80957-5.1173.80957-8.21824-.01522-21.52321-14.95473-35.94331-35.02676-35.94331m-17.23081,29.8942c2.01636-7.94328,8.08074-12.25097,17.23081-12.25097,9.28753,0,15.35191,4.30769,17.23081,12.25097h-34.46161Zm-116.3537-28.41249h17.9182v69.48839h-17.9182v-69.48839Z"/><path class="cls-1" d="m13.97712,191.8912l139.12953,29.57342,31.81894-71.45892L200.0789,5.86581,144.26211,0l-10.26515,97.65647L116.49121,15.32136l-54.88499,11.6705,17.50575,82.3351L0,126.14532l13.97712,65.74589Zm110.44208-53.29631c.21386-1.51228.8096-2.91762,1.75669-4.10912,1.29842-1.64976,3.46755-3.78834,5.95745-3.84943,4.06329-.10692,7.56139,1.71085,9.53193,5.01038,1.98582,3.29951.99291,6.91982-1.09983,10.55539-2.09274,3.62029-7.56139,4.09385-12.93838,1.46645-3.6203-1.78725-3.60503-6.3088-3.20786-9.07367m-39.09009-7.95857c1.13039-4.3688,6.47683-5.01038,9.15005-5.0562,1.00818-.01527,2.01637.1833,2.9329.61102,1.89417.85543,5.08675,2.68849,5.72832,5.46865.9318,4.01747.03055,7.37809-2.84124,10.00547s-6.67541,2.38298-10.69287,1.05402c-4.01747-1.34425-5.80471-6.20188-4.27716-12.08296"/></g></svg>